<svg width="412" height="423" viewBox="0 0 412 423" fill="none" xmlns="http://www.w3.org/2000/svg">
<ellipse cx="206" cy="379.002" rx="206" ry="43.002" fill="#EDEDED" fill-opacity="0.5"/>
<path fill-rule="evenodd" clip-rule="evenodd" d="M113.086 154.837V247.524C109.197 248.544 105.115 249.086 100.906 249.086C74.4481 249.086 53 227.638 53 201.181C53 174.723 74.4481 153.275 100.906 153.275C105.115 153.275 109.197 153.818 113.086 154.837Z" fill="#7C020B" fill-opacity="0.4"/>
<path fill-rule="evenodd" clip-rule="evenodd" d="M113.086 284.751C109.197 283.731 105.115 283.188 100.906 283.188C74.4481 283.188 53 304.637 53 331.094C53 357.552 74.4481 379 100.906 379C127.363 379 148.812 357.552 148.812 331.094C148.812 330.823 148.809 330.552 148.805 330.282H113.086V284.751Z" fill="#FB7B69" fill-opacity="0.4"/>
<path fill-rule="evenodd" clip-rule="evenodd" d="M329.879 249.086C356.337 249.086 377.785 227.638 377.785 201.181C377.785 200.909 377.783 200.639 377.778 200.369H342.058V154.837C338.169 153.818 334.088 153.275 329.879 153.275C303.422 153.275 281.973 174.723 281.973 201.181C281.973 227.638 303.422 249.086 329.879 249.086Z" fill="#56B2A4" fill-opacity="0.4"/>
<circle cx="222.7" cy="331.094" r="47.9058" fill="#2A3347" fill-opacity="0.4"/>
<circle cx="222.7" cy="77.7627" r="47.9058" fill="#FB7B69" fill-opacity="0.4"/>
<rect x="312.828" y="29.8569" width="34.1024" height="95.8115" fill="#7C020B" fill-opacity="0.4"/>
<path d="M133.86 38.5146L134.953 65.9401H132.877C129.671 56.2519 126.831 49.6596 124.354 46.1632C121.877 42.5938 118.308 40.8092 113.646 40.8092H112.335V112.705H121.622V115H81.7407V112.705H91.0282V40.8092H89.6077C84.9458 40.8092 81.34 42.6667 78.7905 46.3817C76.241 50.0239 73.4365 56.5433 70.3771 65.9401H68.3011L69.3937 38.5146H133.86Z" fill="black" fill-opacity="0.4"/>
<path d="M205.392 170.679H240.903V172.755H234.893V219.957C234.893 229.791 232.672 236.966 228.228 241.482C223.785 245.926 217.12 248.147 208.233 248.147C202.332 248.147 197.634 247.018 194.138 244.76C190.714 242.502 189.002 239.333 189.002 235.254C189.002 232.122 189.876 229.682 191.624 227.933C193.373 226.112 195.74 225.202 198.727 225.202C201.786 225.202 204.044 225.967 205.501 227.496C207.031 229.026 207.796 230.884 207.796 233.069C207.796 235.181 207.395 237.33 206.594 239.516H202.332C201.677 240.608 201.349 241.664 201.349 242.684C201.349 243.631 201.823 244.469 202.77 245.197C203.789 245.853 205.1 246.181 206.703 246.181C209.617 246.181 211.474 245.052 212.276 242.793C213.15 240.462 213.587 235.473 213.587 227.824V172.755H205.392V170.679Z" fill="black" fill-opacity="0.4"/>
<path d="M331.344 335.934C338.839 344.45 339.589 351.418 340.151 364.385C350.082 346.966 343.899 330.708 336.403 324.708C328.908 318.708 328.158 308.837 326.097 297.804C318.227 314.256 321.787 324.901 331.344 335.934Z" fill="#C12D2D" fill-opacity="0.4"/>
<path d="M321.225 349.095C325.347 353.934 325.722 357.418 326.097 364.385C331.531 355.095 327.971 346.192 323.848 343.095C319.726 339.998 319.539 334.772 318.414 328.772C314.104 337.676 316.166 343.288 321.225 349.095Z" fill="#C12D2D" fill-opacity="0.4"/>
</svg>
