<svg width="316" height="683" viewBox="0 0 316 683" fill="none" xmlns="http://www.w3.org/2000/svg">
<g filter="url(#filter0_d)">
<path fill-rule="evenodd" clip-rule="evenodd" d="M298.914 666L290.564 652.187L282.215 666L272.401 666L264.051 652.187L255.702 666L245.888 666L237.539 652.187L229.189 666L219.375 666L211.026 652.187L202.676 666L192.862 666L184.513 652.187L176.163 666L166.349 666L158 652.187L149.651 666L139.837 666L131.487 652.187L123.138 666L113.324 666L104.974 652.187L96.6249 666L86.8109 666L78.4615 652.187L70.1121 666L60.2981 666L51.9487 652.187L43.5993 666L33.7853 666L25.4359 652.187L17.0865 666L16.9999 666L17.0001 534.774C27.6492 534.774 36.2821 526.528 36.2821 516.356C36.2821 506.184 27.6492 497.938 17.0001 497.938L17 16.7759L101.372 16.7759C101.363 17.1585 101.359 17.5422 101.359 17.9268C101.359 47.8065 126.718 72.0288 158 72.0288C189.282 72.0288 214.641 47.8065 214.641 17.9268C214.641 17.5422 214.637 17.1586 214.629 16.7759L299 16.7759L299 497.938C288.351 497.938 279.718 506.184 279.718 516.356C279.718 526.528 288.351 534.774 299 534.774L299 666L298.914 666ZM274.897 514.054L274.897 518.658L253.205 518.658L253.205 514.054L274.897 514.054ZM248.385 518.658L248.385 514.054L226.692 514.054L226.692 518.658L248.385 518.658ZM221.872 514.054L221.872 518.658L200.18 518.658L200.18 514.054L221.872 514.054ZM195.359 518.658L195.359 514.054L173.667 514.054L173.667 518.658L195.359 518.658ZM168.846 514.054L168.846 518.658L147.154 518.658L147.154 514.054L168.846 514.054ZM142.333 518.658L142.333 514.054L120.641 514.054L120.641 518.658L142.333 518.658ZM115.82 514.054L115.82 518.658L94.1281 518.658L94.1281 514.054L115.82 514.054ZM89.3077 518.658L89.3077 514.054L67.6153 514.054L67.6153 518.658L89.3077 518.658ZM62.7948 514.054L62.7948 518.658L41.1025 518.658L41.1025 514.054L62.7948 514.054Z" fill="#B6D9CD"/>
<path fill-rule="evenodd" clip-rule="evenodd" d="M286.949 483.014L286.949 27.1354L225.487 27.1351L223.673 27.1351C219.271 59.8858 191.546 85.1242 158 85.1242C124.455 85.1242 96.7294 59.8858 92.3273 27.1351L90.5128 27.1351L29.0513 27.1351L29.0514 483.014C39.7006 483.014 48.3335 491.757 48.3335 502.542L48.3335 502.542L267.667 502.542L267.667 502.542C267.667 491.757 276.3 483.014 286.949 483.014Z" fill="#EAE9E7"/>
<path fill-rule="evenodd" clip-rule="evenodd" d="M259.671 94.8448C257.362 94.2668 254.939 93.9591 252.441 93.9591C236.733 93.9591 224 106.122 224 121.125C224 136.129 236.733 148.291 252.441 148.291C254.939 148.291 257.362 147.984 259.671 147.406L259.671 94.8448Z" fill="#7C020B" fill-opacity="0.2"/>
<path fill-rule="evenodd" clip-rule="evenodd" d="M252.441 221.962C268.148 221.962 280.882 209.8 280.882 194.796C280.882 194.642 280.88 194.489 280.878 194.336L259.671 194.336L259.671 168.516C257.362 167.938 254.939 167.63 252.441 167.63C236.733 167.63 224 179.793 224 194.796C224 209.8 236.733 221.962 252.441 221.962Z" fill="#FB7B69" fill-opacity="0.2"/>
<path d="M272.004 35.5916L272.653 51.8738L271.42 51.8738C269.518 46.122 267.831 42.2083 266.361 40.1325C264.89 38.0134 262.771 36.9539 260.004 36.9539L259.225 36.9539L259.225 79.6377L264.739 79.6377L264.739 81L241.062 81L241.062 79.6377L246.576 79.6377L246.576 36.9539L245.732 36.9539C242.965 36.9539 240.824 38.0566 239.31 40.2622C237.797 42.4245 236.132 46.295 234.315 51.8738L233.083 51.8738L233.732 35.5916L272.004 35.5916Z" fill="black" fill-opacity="0.2"/>
<path d="M47.0432 561.56C47.0432 559.789 47.8097 558.336 49.3425 557.2C50.8753 556.063 53.1746 555.495 56.2402 555.495C59.3059 555.495 61.658 556.063 63.2966 557.2C64.9615 558.336 65.794 560.041 65.794 562.313C65.794 563.053 65.7279 563.727 65.5958 564.335C65.4637 564.917 65.1597 565.538 64.684 566.198C64.2348 566.833 63.7855 567.401 63.3362 567.903C62.9133 568.405 62.1734 569.066 61.1162 569.885C59.5305 571.154 57.8656 572.422 56.1213 573.691C54.3771 574.933 53.3596 575.66 53.0689 575.871L50.6507 577.615L60.1648 577.615C61.9884 577.615 63.2833 577.219 64.0498 576.426C64.8162 575.633 65.358 574.391 65.6751 572.7L66.349 572.7L65.9526 583.681L47.3207 583.681L47.3207 579.082L51.3246 575.395C54.0467 572.911 55.976 570.704 57.1124 568.775C58.2488 566.819 58.817 564.679 58.817 562.353C58.817 560.001 58.5659 558.402 58.0638 557.556C57.5616 556.684 56.7159 556.248 55.5267 556.248C54.3374 556.248 53.5049 556.552 53.0292 557.16C52.5535 557.768 52.3157 558.349 52.3157 558.904C52.3157 559.459 52.3949 559.948 52.5535 560.371L53.7428 560.371C53.9542 560.926 54.0599 561.6 54.0599 562.393C54.0599 563.159 53.7296 563.833 53.0689 564.414C52.4082 564.969 51.536 565.247 50.4525 565.247C49.3689 565.247 48.5232 564.903 47.9154 564.216C47.3339 563.503 47.0432 562.617 47.0432 561.56ZM68.9162 561.56C68.9162 559.789 69.6826 558.336 71.2154 557.2C72.7482 556.063 75.0475 555.495 78.1132 555.495C81.1788 555.495 83.5309 556.063 85.1695 557.2C86.8344 558.336 87.6669 560.041 87.6669 562.313C87.6669 563.053 87.6009 563.727 87.4687 564.335C87.3366 564.917 87.0327 565.538 86.557 566.198C86.1077 566.833 85.6584 567.401 85.2091 567.903C84.7863 568.405 84.0463 569.066 82.9892 569.885C81.4035 571.154 79.7385 572.422 77.9942 573.691C76.25 574.933 75.2325 575.66 74.9418 575.871L72.5236 577.615L82.0377 577.615C83.8613 577.615 85.1563 577.219 85.9227 576.426C86.6891 575.633 87.2309 574.391 87.548 572.7L88.2219 572.7L87.8255 583.681L69.1937 583.681L69.1937 579.082L73.1975 575.395C75.9196 572.911 77.8489 570.704 78.9853 568.775C80.1217 566.819 80.6899 564.679 80.6899 562.353C80.6899 560.001 80.4388 558.402 79.9367 557.556C79.4346 556.684 78.5889 556.248 77.3996 556.248C76.2103 556.248 75.3778 556.552 74.9021 557.16C74.4264 557.768 74.1886 558.349 74.1886 558.904C74.1886 559.459 74.2679 559.948 74.4264 560.371L75.6157 560.371C75.8271 560.926 75.9328 561.6 75.9328 562.393C75.9328 563.159 75.6025 563.833 74.9418 564.414C74.2811 564.969 73.4089 565.247 72.3254 565.247C71.2418 565.247 70.3961 564.903 69.7883 564.216C69.2069 563.503 68.9162 562.617 68.9162 561.56ZM96.8419 587.526L108.536 552.165L110.122 552.165L98.4673 587.526L96.8419 587.526ZM123.346 584.077C119.514 584.077 116.594 582.782 114.585 580.192C112.603 577.602 111.612 573.981 111.612 569.33C111.612 564.679 112.682 561.217 114.823 558.944C116.964 556.645 119.884 555.495 123.584 555.495C127.31 555.495 130.231 556.631 132.345 558.904C134.486 561.177 135.556 564.798 135.556 569.766C135.556 574.735 134.486 578.368 132.345 580.668C130.204 582.941 127.205 584.077 123.346 584.077ZM119.739 568.299L119.739 571.828C119.739 574.391 119.752 576.201 119.778 577.258C119.831 578.316 119.977 579.412 120.214 580.549C120.452 581.685 120.836 582.425 121.364 582.769C121.893 583.086 122.514 583.244 123.227 583.244C123.941 583.244 124.469 583.205 124.813 583.126C125.183 583.046 125.5 582.888 125.764 582.65C126.055 582.386 126.293 582.134 126.478 581.897C126.663 581.632 126.808 581.236 126.914 580.707C127.046 580.179 127.152 579.69 127.231 579.241C127.31 578.791 127.363 578.131 127.39 577.258C127.443 575.567 127.469 573.862 127.469 572.145L127.469 568.656C127.469 563.476 127.271 560.133 126.874 558.627C126.504 557.094 125.421 556.327 123.624 556.327C121.827 556.327 120.73 557.107 120.333 558.666C119.937 560.226 119.739 563.437 119.739 568.299ZM146.619 569.092C144.055 568.96 142.06 568.326 140.633 567.189C139.206 566.027 138.492 564.533 138.492 562.71C138.492 560.49 139.377 558.732 141.148 557.437C142.919 556.142 145.509 555.495 148.918 555.495C152.327 555.495 154.904 556.103 156.648 557.318C158.392 558.534 159.265 560.173 159.265 562.234C159.265 564.269 158.591 565.881 157.243 567.07C155.895 568.233 153.952 568.907 151.415 569.092L151.415 569.211C157.124 569.687 159.978 572.105 159.978 576.466C159.978 579.003 159.08 580.906 157.282 582.174C155.512 583.443 152.737 584.077 148.958 584.077C141.478 584.077 137.739 581.553 137.739 576.505C137.739 572.039 140.699 569.608 146.619 569.211L146.619 569.092ZM152.406 576.466C152.406 574.008 152.169 572.25 151.693 571.193C151.217 570.136 150.292 569.608 148.918 569.608C147.57 569.608 146.658 570.149 146.183 571.233C145.707 572.29 145.469 574.047 145.469 576.505C145.469 578.937 145.694 580.668 146.143 581.698C146.619 582.729 147.557 583.244 148.958 583.244C150.358 583.244 151.283 582.729 151.733 581.698C152.182 580.641 152.406 578.897 152.406 576.466ZM148.958 556.327C147.795 556.327 147.042 556.803 146.698 557.755C146.381 558.68 146.222 559.948 146.222 561.56C146.222 563.146 146.235 564.216 146.262 564.771C146.288 565.3 146.341 565.855 146.42 566.436C146.526 567.018 146.685 567.454 146.896 567.744C147.345 568.379 148.072 568.696 149.076 568.696C149.975 568.696 150.649 568.379 151.098 567.744C151.442 567.242 151.627 566.502 151.653 565.524C151.68 564.52 151.693 563.212 151.693 561.6C151.693 559.961 151.521 558.68 151.178 557.755C150.86 556.803 150.12 556.327 148.958 556.327ZM161.299 587.526L172.994 552.165L174.579 552.165L162.925 587.526L161.299 587.526ZM176.268 561.56C176.268 559.789 177.034 558.336 178.567 557.2C180.1 556.063 182.399 555.495 185.465 555.495C188.53 555.495 190.882 556.063 192.521 557.2C194.186 558.336 195.018 560.041 195.018 562.313C195.018 563.053 194.952 563.727 194.82 564.335C194.688 564.917 194.384 565.538 193.908 566.198C193.459 566.833 193.01 567.401 192.561 567.903C192.138 568.405 191.398 569.066 190.341 569.885C188.755 571.154 187.09 572.422 185.346 573.691C183.601 574.933 182.584 575.66 182.293 575.871L179.875 577.615L189.389 577.615C191.213 577.615 192.508 577.219 193.274 576.426C194.041 575.633 194.582 574.391 194.9 572.7L195.573 572.7L195.177 583.681L176.545 583.681L176.545 579.082L180.549 575.395C183.271 572.911 185.2 570.704 186.337 568.775C187.473 566.819 188.041 564.679 188.041 562.353C188.041 560.001 187.79 558.402 187.288 557.556C186.786 556.684 185.94 556.248 184.751 556.248C183.562 556.248 182.729 556.552 182.254 557.16C181.778 557.768 181.54 558.349 181.54 558.904C181.54 559.459 181.619 559.948 181.778 560.371L182.967 560.371C183.179 560.926 183.284 561.6 183.284 562.393C183.284 563.159 182.954 563.833 182.293 564.414C181.633 564.969 180.76 565.247 179.677 565.247C178.593 565.247 177.748 564.903 177.14 564.216C176.558 563.503 176.268 562.617 176.268 561.56ZM209.676 584.077C205.844 584.077 202.924 582.782 200.916 580.192C198.933 577.602 197.942 573.981 197.942 569.33C197.942 564.679 199.013 561.217 201.153 558.944C203.294 556.645 206.214 555.495 209.914 555.495C213.641 555.495 216.561 556.631 218.675 558.904C220.816 561.177 221.886 564.798 221.886 569.766C221.886 574.735 220.816 578.368 218.675 580.668C216.535 582.941 213.535 584.077 209.676 584.077ZM206.069 568.299L206.069 571.828C206.069 574.391 206.082 576.201 206.109 577.258C206.162 578.316 206.307 579.412 206.545 580.549C206.783 581.685 207.166 582.425 207.694 582.769C208.223 583.086 208.844 583.244 209.558 583.244C210.271 583.244 210.8 583.205 211.143 583.126C211.513 583.046 211.83 582.888 212.095 582.65C212.385 582.386 212.623 582.134 212.808 581.897C212.993 581.632 213.139 581.236 213.244 580.707C213.376 580.179 213.482 579.69 213.561 579.241C213.641 578.791 213.694 578.131 213.72 577.258C213.773 575.567 213.799 573.862 213.799 572.145L213.799 568.656C213.799 563.476 213.601 560.133 213.205 558.627C212.835 557.094 211.751 556.327 209.954 556.327C208.157 556.327 207.06 557.107 206.664 558.666C206.267 560.226 206.069 563.437 206.069 568.299ZM224.465 561.56C224.465 559.789 225.232 558.336 226.765 557.2C228.298 556.063 230.597 555.495 233.662 555.495C236.728 555.495 239.08 556.063 240.719 557.2C242.384 558.336 243.216 560.041 243.216 562.313C243.216 563.053 243.15 563.727 243.018 564.335C242.886 564.917 242.582 565.538 242.106 566.198C241.657 566.833 241.208 567.401 240.758 567.903C240.336 568.405 239.596 569.066 238.538 569.885C236.953 571.154 235.288 572.422 233.544 573.691C231.799 574.933 230.782 575.66 230.491 575.871L228.073 577.615L237.587 577.615C239.411 577.615 240.706 577.219 241.472 576.426C242.238 575.633 242.78 574.391 243.097 572.7L243.771 572.7L243.375 583.681L224.743 583.681L224.743 579.082L228.747 575.395C231.469 572.911 233.398 570.704 234.535 568.775C235.671 566.819 236.239 564.679 236.239 562.353C236.239 560.001 235.988 558.402 235.486 557.556C234.984 556.684 234.138 556.248 232.949 556.248C231.76 556.248 230.927 556.552 230.451 557.16C229.976 557.768 229.738 558.349 229.738 558.904C229.738 559.459 229.817 559.948 229.976 560.371L231.165 560.371C231.376 560.926 231.482 561.6 231.482 562.393C231.482 563.159 231.152 563.833 230.491 564.414C229.83 564.969 228.958 565.247 227.875 565.247C226.791 565.247 225.945 564.903 225.338 564.216C224.756 563.503 224.465 562.617 224.465 561.56ZM257.874 584.077C254.042 584.077 251.122 582.782 249.113 580.192C247.131 577.602 246.14 573.981 246.14 569.33C246.14 564.679 247.211 561.217 249.351 558.944C251.492 556.645 254.412 555.495 258.112 555.495C261.839 555.495 264.759 556.631 266.873 558.904C269.014 561.177 270.084 564.798 270.084 569.766C270.084 574.735 269.014 578.368 266.873 580.668C264.732 582.941 261.733 584.077 257.874 584.077ZM254.267 568.299L254.267 571.828C254.267 574.391 254.28 576.201 254.306 577.258C254.359 578.316 254.505 579.412 254.743 580.549C254.98 581.685 255.364 582.425 255.892 582.769C256.421 583.086 257.042 583.244 257.755 583.244C258.469 583.244 258.997 583.205 259.341 583.126C259.711 583.046 260.028 582.888 260.292 582.65C260.583 582.386 260.821 582.134 261.006 581.897C261.191 581.632 261.336 581.236 261.442 580.707C261.574 580.179 261.68 579.69 261.759 579.241C261.839 578.791 261.891 578.131 261.918 577.258C261.971 575.567 261.997 573.862 261.997 572.145L261.997 568.656C261.997 563.476 261.799 560.133 261.402 558.627C261.032 557.094 259.949 556.327 258.152 556.327C256.355 556.327 255.258 557.107 254.861 558.666C254.465 560.226 254.267 563.437 254.267 568.299Z" fill="#1E1E1E"/>
<path d="M91.733 637.553C91.733 638.24 91.3898 638.583 90.7032 638.583L90.42 638.583C89.7335 638.583 89.3903 638.24 89.3903 637.553L89.3903 621.102C89.3903 620.416 89.7335 620.073 90.42 620.073L90.9349 620.073C91.5013 620.073 91.8961 620.33 92.1192 620.845L96.2641 630.396C96.3499 630.585 96.4529 630.739 96.573 630.86C96.7103 630.963 96.8391 631.014 96.9592 631.014C97.1137 631.014 97.2338 630.945 97.3196 630.808C97.4226 630.654 97.4741 630.439 97.4741 630.165L97.4741 621.102C97.4741 620.416 97.8174 620.073 98.5039 620.073L98.7871 620.073C99.4736 620.073 99.8169 620.416 99.8169 621.102L99.8169 637.553C99.8169 638.24 99.4736 638.583 98.7871 638.583L98.5039 638.583C97.9375 638.583 97.5427 638.326 97.3196 637.811L92.943 627.796C92.7714 627.384 92.5483 627.178 92.2737 627.178C92.1192 627.178 91.9905 627.255 91.8875 627.41C91.7845 627.564 91.733 627.779 91.733 628.053L91.733 637.553ZM104.731 639.896C104.731 640.583 104.388 640.926 103.701 640.926L103.161 640.926C102.474 640.926 102.131 640.583 102.131 639.896L102.131 638.737C102.131 638.051 102.474 637.708 103.161 637.708L103.701 637.708C104.388 637.708 104.731 638.051 104.731 638.737L104.731 639.896ZM115.141 635.21C115.141 635.537 115.21 635.794 115.347 635.983C115.484 636.154 115.673 636.24 115.913 636.24C116.154 636.24 116.334 636.335 116.454 636.523C116.591 636.695 116.66 636.944 116.66 637.27L116.66 637.553C116.66 638.24 116.317 638.583 115.63 638.583L111.923 638.583C111.236 638.583 110.893 638.24 110.893 637.553L110.893 637.27C110.893 636.584 111.211 636.24 111.846 636.24C112.481 636.24 112.798 635.897 112.798 635.21L112.798 623.394C112.798 622.707 112.481 622.364 111.846 622.364C111.211 622.364 110.893 622.021 110.893 621.334L110.893 621.051C110.893 620.364 111.236 620.021 111.923 620.021L112.541 620.021C113.038 620.021 113.459 620.193 113.802 620.536L114.626 621.36C114.969 621.703 115.141 622.124 115.141 622.621L115.141 635.21ZM121.929 635.21C121.929 635.537 121.998 635.794 122.135 635.983C122.272 636.154 122.461 636.24 122.701 636.24C122.942 636.24 123.122 636.335 123.242 636.523C123.379 636.695 123.448 636.944 123.448 637.27L123.448 637.553C123.448 638.24 123.105 638.583 122.418 638.583L118.711 638.583C118.025 638.583 117.681 638.24 117.681 637.553L117.681 637.27C117.681 636.584 117.999 636.24 118.634 636.24C119.269 636.24 119.586 635.897 119.586 635.21L119.586 623.394C119.586 622.707 119.269 622.364 118.634 622.364C117.999 622.364 117.681 622.021 117.681 621.334L117.681 621.051C117.681 620.364 118.025 620.021 118.711 620.021L119.329 620.021C119.827 620.021 120.247 620.193 120.59 620.536L121.414 621.36C121.757 621.703 121.929 622.124 121.929 622.621L121.929 635.21ZM133.171 621.077C133.171 620.39 133.514 620.047 134.201 620.047L134.484 620.047C135.171 620.047 135.514 620.39 135.514 621.077L135.514 637.553C135.514 638.24 135.171 638.583 134.484 638.583L134.201 638.583C133.514 638.583 133.171 638.24 133.171 637.553L133.171 633.486C133.171 632.799 132.828 632.456 132.141 632.456L127.61 632.456C127.113 632.456 126.692 632.284 126.349 631.941L125.499 631.091C125.156 630.748 124.984 630.328 124.984 629.83L124.984 621.077C124.984 620.39 125.328 620.047 126.014 620.047L126.297 620.047C126.984 620.047 127.327 620.39 127.327 621.077L127.327 629.083C127.327 629.77 127.67 630.113 128.357 630.113L132.141 630.113C132.828 630.113 133.171 629.77 133.171 629.083L133.171 621.077ZM146.19 635.21C146.19 635.537 146.259 635.794 146.396 635.983C146.534 636.154 146.723 636.24 146.963 636.24C147.203 636.24 147.383 636.335 147.503 636.523C147.641 636.695 147.709 636.944 147.709 637.27L147.709 637.553C147.709 638.24 147.366 638.583 146.68 638.583L142.972 638.583C142.286 638.583 141.943 638.24 141.943 637.553L141.943 637.27C141.943 636.584 142.26 636.24 142.895 636.24C143.53 636.24 143.848 635.897 143.848 635.21L143.848 623.394C143.848 622.707 143.53 622.364 142.895 622.364C142.26 622.364 141.943 622.021 141.943 621.334L141.943 621.051C141.943 620.364 142.286 620.021 142.972 620.021L143.59 620.021C144.088 620.021 144.508 620.193 144.852 620.536L145.676 621.36C146.019 621.703 146.19 622.124 146.19 622.621L146.19 635.21ZM159.235 621.386C159.578 621.729 159.749 622.149 159.749 622.647L159.749 627.461C159.749 627.959 159.578 628.388 159.235 628.749C159.029 628.955 158.926 629.169 158.926 629.392C158.926 629.598 159.011 629.787 159.183 629.959L159.235 630.01C159.578 630.353 159.749 630.782 159.749 631.297L159.749 635.983C159.749 636.481 159.578 636.901 159.235 637.244L158.411 638.068C158.067 638.411 157.647 638.583 157.149 638.583L150.275 638.583C149.589 638.583 149.246 638.24 149.246 637.553L149.246 637.296C149.246 636.609 149.589 636.266 150.275 636.266L156.403 636.266C157.089 636.266 157.432 635.923 157.432 635.236L157.432 631.58C157.432 630.894 157.089 630.551 156.403 630.551L150.507 630.551C149.821 630.551 149.477 630.207 149.477 629.521L149.477 629.238C149.477 628.551 149.821 628.208 150.507 628.208L156.403 628.208C157.089 628.208 157.432 627.865 157.432 627.178L157.432 623.419C157.432 622.733 157.089 622.39 156.403 622.39L150.275 622.39C149.589 622.39 149.246 622.046 149.246 621.36L149.246 621.077C149.246 620.39 149.589 620.047 150.275 620.047L157.149 620.047C157.647 620.047 158.067 620.218 158.411 620.562L159.235 621.386ZM172.057 621.386C172.4 621.729 172.571 622.149 172.571 622.647L172.571 627.461C172.571 627.959 172.4 628.388 172.057 628.749C171.851 628.955 171.748 629.169 171.748 629.392C171.748 629.598 171.833 629.787 172.005 629.959L172.057 630.01C172.4 630.353 172.571 630.782 172.571 631.297L172.571 635.983C172.571 636.481 172.4 636.901 172.057 637.244L171.233 638.068C170.89 638.411 170.469 638.583 169.971 638.583L163.097 638.583C162.411 638.583 162.068 638.24 162.068 637.553L162.068 637.296C162.068 636.609 162.411 636.266 163.097 636.266L169.225 636.266C169.911 636.266 170.254 635.923 170.254 635.236L170.254 631.58C170.254 630.894 169.911 630.551 169.225 630.551L163.329 630.551C162.643 630.551 162.299 630.207 162.299 629.521L162.299 629.238C162.299 628.551 162.643 628.208 163.329 628.208L169.225 628.208C169.911 628.208 170.254 627.865 170.254 627.178L170.254 623.419C170.254 622.733 169.911 622.39 169.225 622.39L163.097 622.39C162.411 622.39 162.068 622.046 162.068 621.36L162.068 621.077C162.068 620.39 162.411 620.047 163.097 620.047L169.971 620.047C170.469 620.047 170.89 620.218 171.233 620.562L172.057 621.386ZM175.147 621.077C175.147 620.39 175.49 620.047 176.177 620.047L183.025 620.047C183.523 620.047 183.943 620.227 184.287 620.587L185.11 621.411C185.454 621.755 185.625 622.175 185.625 622.673L185.625 627.95C185.625 628.448 185.454 628.877 185.11 629.238L184.287 630.062C183.943 630.405 183.523 630.576 183.025 630.576L178.52 630.576C177.833 630.576 177.49 630.92 177.49 631.606L177.49 635.21C177.49 635.897 177.833 636.24 178.52 636.24L184.595 636.24C185.282 636.24 185.625 636.584 185.625 637.27L185.625 637.553C185.625 638.24 185.282 638.583 184.595 638.583L177.722 638.583C177.464 638.583 177.232 638.54 177.027 638.454C176.838 638.386 176.649 638.266 176.46 638.094L175.714 637.45C175.336 637.09 175.147 636.661 175.147 636.163L175.147 630.808C175.147 630.551 175.19 630.328 175.276 630.139C175.362 629.933 175.499 629.735 175.688 629.547L176.486 628.749C176.829 628.405 177.25 628.234 177.747 628.234L182.278 628.234C182.965 628.234 183.308 627.89 183.308 627.204L183.308 623.419C183.308 622.733 182.965 622.39 182.278 622.39L176.177 622.39C175.49 622.39 175.147 622.046 175.147 621.36L175.147 621.077ZM200.751 621.077C200.751 620.39 201.094 620.047 201.781 620.047L202.064 620.047C202.75 620.047 203.094 620.39 203.094 621.077L203.094 637.553C203.094 638.24 202.75 638.583 202.064 638.583L201.781 638.583C201.094 638.583 200.751 638.24 200.751 637.553L200.751 633.486C200.751 632.799 200.408 632.456 199.721 632.456L195.19 632.456C194.692 632.456 194.272 632.284 193.929 631.941L193.079 631.091C192.736 630.748 192.564 630.328 192.564 629.83L192.564 621.077C192.564 620.39 192.907 620.047 193.594 620.047L193.877 620.047C194.564 620.047 194.907 620.39 194.907 621.077L194.907 629.083C194.907 629.77 195.25 630.113 195.937 630.113L199.721 630.113C200.408 630.113 200.751 629.77 200.751 629.083L200.751 621.077ZM209.144 635.21C209.144 635.537 209.213 635.794 209.35 635.983C209.487 636.154 209.676 636.24 209.917 636.24C210.157 636.24 210.337 636.335 210.457 636.523C210.594 636.695 210.663 636.944 210.663 637.27L210.663 637.553C210.663 638.24 210.32 638.583 209.633 638.583L205.926 638.583C205.24 638.583 204.896 638.24 204.896 637.553L204.896 637.27C204.896 636.584 205.214 636.24 205.849 636.24C206.484 636.24 206.801 635.897 206.801 635.21L206.801 623.394C206.801 622.707 206.484 622.364 205.849 622.364C205.214 622.364 204.896 622.021 204.896 621.334L204.896 621.051C204.896 620.364 205.24 620.021 205.926 620.021L206.544 620.021C207.042 620.021 207.462 620.193 207.805 620.536L208.629 621.36C208.973 621.703 209.144 622.124 209.144 622.621L209.144 635.21ZM212.457 621.077C212.457 620.39 212.8 620.047 213.487 620.047L220.335 620.047C220.832 620.047 221.253 620.227 221.596 620.587L222.42 621.411C222.763 621.755 222.935 622.175 222.935 622.673L222.935 627.95C222.935 628.448 222.763 628.877 222.42 629.238L221.596 630.062C221.253 630.405 220.832 630.576 220.335 630.576L215.829 630.576C215.143 630.576 214.8 630.92 214.8 631.606L214.8 635.21C214.8 635.897 215.143 636.24 215.829 636.24L221.905 636.24C222.592 636.24 222.935 636.584 222.935 637.27L222.935 637.553C222.935 638.24 222.592 638.583 221.905 638.583L215.031 638.583C214.774 638.583 214.542 638.54 214.336 638.454C214.147 638.386 213.959 638.266 213.77 638.094L213.023 637.45C212.646 637.09 212.457 636.661 212.457 636.163L212.457 630.808C212.457 630.551 212.5 630.328 212.586 630.139C212.671 629.933 212.809 629.735 212.997 629.547L213.796 628.749C214.139 628.405 214.559 628.234 215.057 628.234L219.588 628.234C220.275 628.234 220.618 627.89 220.618 627.204L220.618 623.419C220.618 622.733 220.275 622.39 219.588 622.39L213.487 622.39C212.8 622.39 212.457 622.046 212.457 621.36L212.457 621.077Z" fill="#B03434"/>
</g>
<defs>
<filter id="filter0_d" x="0.977272" y="0.753151" width="314.046" height="681.27" filterUnits="userSpaceOnUse" color-interpolation-filters="sRGB">
<feFlood flood-opacity="0" result="BackgroundImageFix"/>
<feColorMatrix in="SourceAlpha" type="matrix" values="0 0 0 0 0 0 0 0 0 0 0 0 0 0 0 0 0 0 127 0"/>
<feOffset/>
<feGaussianBlur stdDeviation="8.01136"/>
<feColorMatrix type="matrix" values="0 0 0 0 0 0 0 0 0 0 0 0 0 0 0 0 0 0 0.1 0"/>
<feBlend mode="normal" in2="BackgroundImageFix" result="effect1_dropShadow"/>
<feBlend mode="normal" in="SourceGraphic" in2="effect1_dropShadow" result="shape"/>
</filter>
</defs>
</svg>
