<svg width="220" height="255" viewBox="0 0 335 390" fill="none" xmlns="http://www.w3.org/2000/svg">
<path fill-rule="evenodd" clip-rule="evenodd" d="M61.8289 159.331V254.708C57.8271 255.757 53.6268 256.316 49.2961 256.316C22.0706 256.316 0 234.245 0 207.02C0 179.794 22.0706 157.724 49.2961 157.724C53.6268 157.724 57.8271 158.282 61.8289 159.331Z" fill="#7C020B" fill-opacity="0.4"/>
<path fill-rule="evenodd" clip-rule="evenodd" d="M61.8289 293.015C57.8271 291.966 53.6268 291.408 49.2961 291.408C22.0706 291.408 0 313.479 0 340.704C0 367.929 22.0706 390 49.2961 390C76.5215 390 98.5921 367.929 98.5921 340.704C98.5921 340.425 98.5898 340.146 98.5852 339.868H61.8289L61.8289 293.015Z" fill="#FB7B69" fill-opacity="0.4"/>
<path fill-rule="evenodd" clip-rule="evenodd" d="M284.914 256.316C312.14 256.316 334.211 234.245 334.211 207.02C334.211 206.741 334.208 206.462 334.204 206.184H297.447V159.331C293.446 158.282 289.245 157.724 284.914 157.724C257.689 157.724 235.618 179.794 235.618 207.02C235.618 234.245 257.689 256.316 284.914 256.316Z" fill="#56B2A4" fill-opacity="0.4"/>
<circle cx="174.625" cy="340.704" r="49.2961" fill="#2A3347" fill-opacity="0.2"/>
<circle cx="174.625" cy="80.0197" r="49.2961" fill="#FB7B69" fill-opacity="0.2"/>
<rect x="267.368" y="30.7236" width="35.0921" height="98.5921" fill="#7C020B" fill-opacity="0.2"/>
<path d="M83.2065 40.2949L84.3308 68.5163H82.1945C78.8964 58.547 75.9731 51.7634 73.4245 48.1654C70.876 44.4925 67.2031 42.6561 62.4058 42.6561H61.0566V116.639H70.6137V119H29.5746V116.639H39.1316V42.6561H37.6699C32.8727 42.6561 29.1623 44.5675 26.5388 48.3903C23.9153 52.1381 21.0294 58.8468 17.8812 68.5163H15.745L16.8693 40.2949H83.2065Z" fill="black" fill-opacity="0.4"/>
<path d="M156.815 176.295H193.357V178.431H187.173V227.003C187.173 237.123 184.887 244.506 180.314 249.153C175.742 253.726 168.883 256.012 159.738 256.012C153.667 256.012 148.832 254.85 145.234 252.526C141.711 250.203 139.95 246.942 139.95 242.744C139.95 239.521 140.849 237.01 142.648 235.211C144.447 233.337 146.883 232.4 149.956 232.4C153.105 232.4 155.428 233.187 156.928 234.762C158.502 236.336 159.289 238.247 159.289 240.496C159.289 242.67 158.876 244.881 158.052 247.129H153.667C152.992 248.254 152.655 249.341 152.655 250.39C152.655 251.365 153.142 252.227 154.117 252.976C155.166 253.651 156.515 253.988 158.164 253.988C161.163 253.988 163.074 252.826 163.899 250.503C164.798 248.104 165.248 242.969 165.248 235.099V178.431H156.815V176.295Z" fill="black" fill-opacity="0.4"/>
<path d="M286.422 345.683C294.135 354.446 294.906 361.616 295.484 374.961C305.704 357.036 299.341 340.306 291.628 334.131C283.915 327.957 283.144 317.8 281.023 306.447C272.924 323.377 276.588 334.331 286.422 345.683Z" fill="#C12D2D" fill-opacity="0.4"/>
<path d="M276.009 359.226C280.251 364.206 280.637 367.791 281.023 374.961C286.615 365.401 282.951 356.239 278.709 353.052C274.467 349.866 274.274 344.488 273.117 338.314C268.682 347.476 270.803 353.251 276.009 359.226Z" fill="#C12D2D" fill-opacity="0.4"/>
</svg>
