<svg width="134" height="157" viewBox="0 0 134 157" fill="none" xmlns="http://www.w3.org/2000/svg">
<path fill-rule="evenodd" clip-rule="evenodd" d="M24.7902 63.8828V102.124C23.1857 102.544 21.5015 102.768 19.765 102.768C8.84909 102.768 0 93.9192 0 83.0033C0 72.0874 8.84909 63.2383 19.765 63.2383C21.5015 63.2383 23.1857 63.4622 24.7902 63.8828Z" fill="#7C020B" fill-opacity="0.4"/>
<path fill-rule="evenodd" clip-rule="evenodd" d="M24.7902 117.483C23.1857 117.062 21.5015 116.838 19.765 116.838C8.84909 116.838 0 125.687 0 136.603C0 147.519 8.84909 156.368 19.765 156.368C30.6809 156.368 39.53 147.519 39.53 136.603C39.53 136.491 39.5291 136.38 39.5272 136.268H24.7902L24.7902 117.483Z" fill="#FB7B69" fill-opacity="0.4"/>
<path fill-rule="evenodd" clip-rule="evenodd" d="M114.235 102.768C125.151 102.768 134 93.9192 134 83.0033C134 82.8914 133.999 82.7798 133.997 82.6684H119.26V63.8827C117.655 63.4622 115.971 63.2383 114.235 63.2383C103.319 63.2383 94.47 72.0874 94.47 83.0033C94.47 93.9192 103.319 102.768 114.235 102.768Z" fill="#56B2A4" fill-opacity="0.4"/>
<circle cx="70.015" cy="136.603" r="19.765" fill="#2A3347" fill-opacity="0.4"/>
<circle cx="70.015" cy="32.0834" r="19.765" fill="#FB7B69" fill-opacity="0.4"/>
<rect x="107.2" y="12.3184" width="14.07" height="39.53" fill="#7C020B" fill-opacity="0.4"/>
<path d="M33.3613 16.4436L33.8121 27.7588H32.9556C31.6332 23.7617 30.4611 21.0418 29.4393 19.5992C28.4175 18.1266 26.9448 17.3903 25.0214 17.3903H24.4804V47.0533H28.3123V48H11.8579V47.0533H15.6897V17.3903H15.1037C13.1802 17.3903 11.6926 18.1567 10.6407 19.6894C9.58882 21.1921 8.43175 23.8819 7.16949 27.7588H6.31296L6.76377 16.4436H33.3613Z" fill="black" fill-opacity="0.4"/>
<path d="M62.874 70.9719H77.5252V71.8284H75.0458V91.3033C75.0458 95.3605 74.1291 98.3208 72.2958 100.184C70.4626 102.017 67.7126 102.934 64.0461 102.934C61.6117 102.934 59.6733 102.468 58.2307 101.537C56.8182 100.605 56.1119 99.2975 56.1119 97.6145C56.1119 96.3222 56.4726 95.3154 57.1938 94.5941C57.9151 93.8428 58.8919 93.4671 60.1241 93.4671C61.3863 93.4671 62.318 93.7827 62.9191 94.4138C63.5502 95.0449 63.8658 95.8113 63.8658 96.7129C63.8658 97.5845 63.7005 98.4711 63.3699 99.3727H61.6117C61.3413 99.8235 61.206 100.259 61.206 100.68C61.206 101.071 61.4014 101.416 61.7921 101.717C62.2128 101.987 62.7538 102.123 63.415 102.123C64.6171 102.123 65.3835 101.657 65.7141 100.725C66.0747 99.7634 66.255 97.7047 66.255 94.5491V71.8284H62.874V70.9719Z" fill="black" fill-opacity="0.4"/>
<path d="M114.839 138.6C117.932 142.114 118.241 144.988 118.473 150.339C122.57 143.152 120.019 136.444 116.927 133.968C113.834 131.493 113.525 127.42 112.675 122.869C109.427 129.656 110.896 134.048 114.839 138.6Z" fill="#C12D2D" fill-opacity="0.4"/>
<path d="M110.664 144.03C112.365 146.027 112.52 147.464 112.675 150.339C114.917 146.506 113.448 142.832 111.747 141.555C110.046 140.277 109.969 138.121 109.505 135.645C107.727 139.319 108.577 141.634 110.664 144.03Z" fill="#C12D2D" fill-opacity="0.4"/>
</svg>
