<svg width="192" height="67" viewBox="0 0 192 67" fill="none" xmlns="http://www.w3.org/2000/svg">
<path d="M7.57395 33.6638H2.80174C2.30913 33.6638 1.94993 33.5509 1.72415 33.3251C1.49837 33.0994 1.38548 32.7402 1.38548 32.2476V12.2967C1.38548 12.0298 1.41627 11.8041 1.47784 11.6193C1.55995 11.4346 1.67284 11.2807 1.81652 11.1575L5.78822 7.80156C5.89085 7.71946 6.02426 7.65788 6.18847 7.61683C6.3732 7.55525 6.56819 7.52447 6.77345 7.52447H20.5051C20.9977 7.52447 21.3569 7.63736 21.5827 7.86314C21.8085 8.08892 21.9213 8.44812 21.9213 8.94073V12.6046C21.9213 12.8714 21.8803 13.0972 21.7982 13.2819C21.7366 13.4666 21.634 13.6206 21.4903 13.7437L18.042 16.607C18.5141 16.607 18.863 16.7199 19.0888 16.9457C19.3146 17.1715 19.4275 17.5307 19.4275 18.0233V21.7179C19.4275 21.9848 19.3864 22.2105 19.3043 22.3953C19.2428 22.58 19.1401 22.7339 18.9964 22.8571L14.994 26.1822C14.9118 26.2643 14.7784 26.3362 14.5937 26.3978C14.4295 26.4593 14.2448 26.4901 14.0395 26.4901H12.9619V28.8916C12.9619 29.1585 12.9209 29.3842 12.8388 29.569C12.7772 29.7537 12.6746 29.9076 12.5309 30.0308L8.52839 33.3559C8.44628 33.438 8.31287 33.5099 8.12814 33.5715C7.96393 33.633 7.7792 33.6638 7.57395 33.6638ZM11.5457 30C11.9356 30 12.2127 29.9179 12.3769 29.7537C12.5617 29.569 12.654 29.2816 12.654 28.8916V22.8263H18.0112C18.4012 22.8263 18.6783 22.7442 18.8425 22.58C19.0272 22.3953 19.1196 22.1079 19.1196 21.7179V18.0233C19.1196 17.6333 19.0272 17.3562 18.8425 17.192C18.6783 17.0073 18.4012 16.9149 18.0112 16.9149H12.654V13.7129H20.5051C20.8951 13.7129 21.1722 13.6308 21.3364 13.4666C21.5211 13.2819 21.6135 12.9945 21.6135 12.6046V8.94073C21.6135 8.55075 21.5211 8.27365 21.3364 8.10945C21.1722 7.92472 20.8951 7.83235 20.5051 7.83235H6.77345C6.38346 7.83235 6.0961 7.92472 5.91137 8.10945C5.74717 8.27365 5.66507 8.55075 5.66507 8.94073V28.8916C5.66507 29.2816 5.74717 29.569 5.91137 29.7537C6.0961 29.9179 6.38346 30 6.77345 30H11.5457ZM9.021 27.229V10.6033H18.8425V10.9112H9.32889V19.7167H16.3486V20.0246H9.32889V27.229H9.021ZM29.7914 20.6711V21.6256H41.7989V20.6711C41.7989 20.1169 41.7475 19.6038 41.6449 19.1317C41.5628 18.6596 41.4499 18.2183 41.3062 17.8078L39.1818 12.7893C38.9561 12.2556 38.72 11.8143 38.4737 11.4654C38.2274 11.0959 37.8169 10.9112 37.2422 10.9112H34.2249C33.6091 10.9112 33.1781 11.0959 32.9318 11.4654C32.6855 11.8143 32.4597 12.2454 32.2545 12.7585L30.284 17.8078C30.1403 18.2183 30.0172 18.6596 29.9145 19.1317C29.8324 19.6038 29.7914 20.1169 29.7914 20.6711ZM34.7175 14.2979C34.7996 14.1132 34.8817 13.9798 34.9638 13.8977C35.0665 13.8156 35.1794 13.7745 35.3025 13.7745H36.0722C36.1954 13.7745 36.298 13.8156 36.3801 13.8977C36.4827 13.9798 36.5751 14.1132 36.6572 14.2979L38.1043 18.9778H33.2705L34.7175 14.2979ZM41.7989 27.229V21.9334H29.7914V27.229H29.4835V20.6711C29.4835 20.0964 29.5246 19.573 29.6067 19.1009C29.7093 18.6083 29.8427 18.1362 30.0069 17.6846L31.9774 12.6353C32.2031 12.0606 32.4597 11.5783 32.7471 11.1883C33.0344 10.7983 33.527 10.6033 34.2249 10.6033H37.2422C37.9195 10.6033 38.3916 10.7983 38.6584 11.1883C38.9458 11.5783 39.2126 12.0709 39.4589 12.6661L41.5833 17.6846C41.7475 18.1362 41.8707 18.6083 41.9528 19.1009C42.0554 19.573 42.1067 20.0964 42.1067 20.6711V27.229H41.7989ZM32.9626 28.8916V24.5812H38.4121V28.8916C38.4121 29.2816 38.5045 29.569 38.6892 29.7537C38.8945 29.9179 39.2024 30 39.6129 30H44.2619C44.6519 30 44.929 29.9179 45.0932 29.7537C45.278 29.569 45.3703 29.2816 45.3703 28.8916V20.7635C45.3703 20.1477 45.2677 19.4396 45.0624 18.6391C44.8777 17.8386 44.5801 16.9047 44.1696 15.8373L41.491 8.84837C41.3678 8.49943 41.1728 8.24286 40.906 8.07866C40.6597 7.91445 40.3415 7.83235 39.9516 7.83235H31.6695C31.259 7.83235 30.9203 7.91445 30.6535 8.07866C30.4072 8.24286 30.2224 8.49943 30.0993 8.84837L27.4207 15.8373C27.0102 16.9047 26.7023 17.8386 26.497 18.6391C26.3123 19.4396 26.2199 20.1477 26.2199 20.7635V28.8916C26.2199 29.2816 26.302 29.569 26.4662 29.7537C26.651 29.9179 26.9383 30 27.3283 30H31.8542C32.2442 30 32.5213 29.9179 32.6855 29.7537C32.8702 29.569 32.9626 29.2816 32.9626 28.8916ZM28.8369 33.3559C28.7548 33.438 28.6214 33.5099 28.4367 33.5715C28.2725 33.633 28.0878 33.6638 27.8825 33.6638H23.3566C22.864 33.6638 22.5048 33.5509 22.279 33.3251C22.0532 33.0994 21.9403 32.7402 21.9403 32.2476V24.1194C21.9403 23.4831 22.0327 22.7647 22.2174 21.9642C22.4227 21.1432 22.7408 20.1785 23.1719 19.0701L25.8197 12.1119C25.8813 11.9272 25.9531 11.7733 26.0352 11.6501C26.1378 11.5064 26.2405 11.3833 26.3431 11.2807L26.3739 11.2499L30.3148 7.9555C30.479 7.81182 30.674 7.7092 30.8998 7.64762C31.1255 7.56552 31.3821 7.52447 31.6695 7.52447H39.9516C40.4236 7.52447 40.8034 7.62709 41.0907 7.83235C41.3986 8.01708 41.6244 8.3147 41.7681 8.72521L44.4467 15.7142C44.8777 16.8226 45.1856 17.7873 45.3703 18.6083C45.5756 19.4088 45.6782 20.1272 45.6782 20.7635V28.8916C45.6782 29.1585 45.6372 29.3842 45.555 29.569C45.4935 29.7537 45.3908 29.9076 45.2472 30.0308L41.2447 33.3559C41.1626 33.438 41.0292 33.5099 40.8444 33.5715C40.6802 33.633 40.4955 33.6638 40.2902 33.6638H35.6412C35.128 33.6638 34.7483 33.5407 34.502 33.2944C34.2557 33.0686 34.1326 32.7196 34.1326 32.2476V28.2451H33.2705V28.8916C33.2705 29.1585 33.2294 29.3842 33.1473 29.569C33.0857 29.7537 32.9831 29.9076 32.8394 30.0308L28.8369 33.3559ZM53.077 33.6638C52.6049 33.6638 52.2252 33.5715 51.9379 33.3867C51.6505 33.2225 51.4145 32.9146 51.2297 32.4631L48.2125 24.9199C48.0277 24.4478 47.8635 24.0476 47.7199 23.7192C47.5967 23.3702 47.4941 23.0418 47.412 22.7339C47.3299 22.4055 47.2683 22.0669 47.2272 21.7179C47.2067 21.3485 47.1965 20.9174 47.1965 20.4248V12.2967C47.1965 12.0298 47.2272 11.8041 47.2888 11.6193C47.3709 11.4346 47.4838 11.2807 47.6275 11.1575L51.5992 7.80156C51.7018 7.71946 51.8352 7.65788 51.9994 7.61683C52.1842 7.55525 52.3792 7.52447 52.5844 7.52447H57.4798C57.9724 7.52447 58.3419 7.64762 58.5882 7.89393C58.855 8.11971 58.9884 8.46864 58.9884 8.94073V17.4383C58.9884 17.6436 59.0089 17.8386 59.05 18.0233C59.091 18.208 59.1424 18.403 59.2039 18.6083L59.2963 18.8238V12.2967C59.2963 12.0298 59.3271 11.8041 59.3887 11.6193C59.4708 11.4346 59.5837 11.2807 59.7273 11.1575L63.699 7.80156C63.8017 7.71946 63.9351 7.65788 64.0993 7.61683C64.284 7.55525 64.479 7.52447 64.6843 7.52447H69.518C70.0312 7.52447 70.3904 7.63736 70.5956 7.86314C70.8214 8.08892 70.9343 8.44812 70.9343 8.94073V17.0689C70.9343 17.5615 70.9138 17.9925 70.8727 18.362C70.8522 18.7109 70.8009 19.0496 70.7188 19.378C70.6367 19.6859 70.5238 20.0143 70.3801 20.3632C70.257 20.6916 70.103 21.0919 69.9183 21.564L66.901 29.1071C66.8395 29.2919 66.7574 29.4561 66.6547 29.5998C66.5521 29.7434 66.4495 29.8563 66.3468 29.9384L62.3751 33.2328C62.2109 33.3765 62.0159 33.4791 61.7902 33.5407C61.5849 33.6228 61.3489 33.6638 61.082 33.6638H53.077ZM65.0537 30C65.4437 30 65.7619 29.9282 66.0082 29.7845C66.275 29.6408 66.4803 29.374 66.6239 28.984L69.6412 21.4408C69.8259 20.9893 69.9799 20.5993 70.103 20.2709C70.2262 19.9219 70.3288 19.5935 70.4109 19.2856C70.493 18.9778 70.5443 18.6596 70.5648 18.3312C70.6059 17.9823 70.6264 17.5615 70.6264 17.0689V8.94073C70.6264 8.55075 70.5341 8.27365 70.3493 8.10945C70.1851 7.92472 69.908 7.83235 69.518 7.83235H64.6843C64.2943 7.83235 64.0069 7.92472 63.8222 8.10945C63.658 8.27365 63.5759 8.55075 63.5759 8.94073V17.4075C63.5759 17.6128 63.5554 17.8181 63.5143 18.0233C63.4733 18.2286 63.4117 18.4441 63.3296 18.6699L61.8825 23.011C61.8209 23.2163 61.7491 23.36 61.667 23.4421C61.5849 23.5036 61.4617 23.5344 61.2975 23.5344H60.9589C60.7947 23.5344 60.6715 23.5036 60.5894 23.4421C60.5073 23.36 60.4355 23.2163 60.3739 23.011L58.9268 18.7007C58.8447 18.4749 58.7832 18.2594 58.7421 18.0541C58.7011 17.8488 58.6805 17.6436 58.6805 17.4383V8.94073C58.6805 8.55075 58.5779 8.27365 58.3726 8.10945C58.1674 7.92472 57.8698 7.83235 57.4798 7.83235H52.5844C52.1944 7.83235 51.9071 7.92472 51.7223 8.10945C51.5581 8.27365 51.476 8.55075 51.476 8.94073V17.0689C51.476 17.5615 51.4863 17.9823 51.5068 18.3312C51.5479 18.6596 51.6095 18.9778 51.6916 19.2856C51.7737 19.5935 51.8763 19.9219 51.9994 20.2709C52.1226 20.5993 52.2765 20.9893 52.4613 21.4408L55.4785 28.984C55.6222 29.374 55.8172 29.6408 56.0635 29.7845C56.3303 29.9282 56.6588 30 57.0487 30H65.0537ZM54.9551 10.6033H55.263V17.2536C55.263 17.7873 55.3041 18.3004 55.3862 18.793C55.4683 19.2651 55.5914 19.7064 55.7556 20.1169L57.7877 25.0431C57.9929 25.5767 58.2187 26.0283 58.465 26.3978C58.7318 26.7467 59.1526 26.9212 59.7273 26.9212H62.4367C63.0114 26.9212 63.4219 26.7467 63.6682 26.3978C63.9351 26.0283 64.1711 25.5767 64.3764 25.0431L66.4084 20.1169C66.5726 19.7064 66.6958 19.2651 66.7779 18.793C66.86 18.3004 66.901 17.7873 66.901 17.2536V10.6033H67.2089V17.2536C67.2089 17.8283 67.1679 18.362 67.0858 18.8546C67.0242 19.3267 66.901 19.7885 66.7163 20.2401L64.6843 25.1662C64.438 25.7615 64.1609 26.2541 63.853 26.6441C63.5451 27.0341 63.073 27.229 62.4367 27.229H59.7273C59.091 27.229 58.6189 27.0341 58.3111 26.6441C58.0032 26.2541 57.7261 25.7615 57.4798 25.1662L55.4477 20.2401C55.263 19.7885 55.1296 19.3267 55.0475 18.8546C54.9859 18.362 54.9551 17.8283 54.9551 17.2536V10.6033Z" fill="#575450"/>
<path d="M38.0876 63.6638H23.8017C23.3091 63.6638 22.9499 63.5509 22.7242 63.3251C22.4984 63.0994 22.3855 62.7402 22.3855 62.2476V42.2967C22.3855 42.0298 22.4163 41.8041 22.4778 41.6193C22.5599 41.4346 22.6728 41.2807 22.8165 41.1575L26.7882 37.8016C26.8908 37.7195 27.0243 37.6579 27.1885 37.6168C27.3732 37.5553 27.5682 37.5245 27.7734 37.5245H42.0593C42.5519 37.5245 42.9111 37.6374 43.1369 37.8631C43.3626 38.0889 43.4755 38.4481 43.4755 38.9407V42.543C43.4755 42.8098 43.4345 43.0356 43.3524 43.2203C43.2908 43.4051 43.1882 43.559 43.0445 43.6821L40.3967 45.8681C40.6019 45.9708 40.7456 46.1247 40.8277 46.3299C40.9304 46.5352 40.9817 46.802 40.9817 47.1304V50.4248C40.9817 50.6916 40.9406 50.9174 40.8585 51.1022C40.7969 51.2869 40.6943 51.4408 40.5506 51.564L37.8105 53.8731H42.0593C42.5519 53.8731 42.9111 53.986 43.1369 54.2118C43.3626 54.4376 43.4755 54.7968 43.4755 55.2894V58.8916C43.4755 59.1585 43.4345 59.3842 43.3524 59.569C43.2908 59.7537 43.1882 59.9076 43.0445 60.0308L39.042 63.3559C38.9599 63.438 38.8265 63.5099 38.6418 63.5715C38.4775 63.633 38.2928 63.6638 38.0876 63.6638ZM42.0593 60C42.4493 60 42.7263 59.9179 42.8906 59.7537C43.0753 59.569 43.1676 59.2816 43.1676 58.8916V55.2894C43.1676 54.8994 43.0753 54.6223 42.8906 54.4581C42.7263 54.2734 42.4493 54.181 42.0593 54.181H33.5617V51.5332H39.5654C39.9554 51.5332 40.2325 51.4511 40.3967 51.2869C40.5814 51.1022 40.6738 50.8148 40.6738 50.4248V47.1304C40.6738 46.7405 40.5814 46.4634 40.3967 46.2992C40.2325 46.1144 39.9554 46.0221 39.5654 46.0221H33.5617V43.6514H42.0593C42.4493 43.6514 42.7263 43.5693 42.8906 43.4051C43.0753 43.2203 43.1676 42.933 43.1676 42.543V38.9407C43.1676 38.5507 43.0753 38.2737 42.8906 38.1094C42.7263 37.9247 42.4493 37.8324 42.0593 37.8324H27.7734C27.3835 37.8324 27.0961 37.9247 26.9114 38.1094C26.7472 38.2737 26.6651 38.5507 26.6651 38.9407V58.8916C26.6651 59.2816 26.7472 59.569 26.9114 59.7537C27.0961 59.9179 27.3835 60 27.7734 60H42.0593ZM40.3967 56.9212V57.229H30.021V40.6033H40.3967V40.9112H30.3289V48.6391H37.9028V48.947H30.3289V56.9212H40.3967ZM51.0158 63.6638C50.5437 63.6638 50.164 63.5715 49.8766 63.3867C49.5893 63.2225 49.3532 62.9146 49.1685 62.4631L46.1512 54.9199C45.9665 54.4478 45.8023 54.0476 45.6586 53.7192C45.5355 53.3702 45.4328 53.0418 45.3507 52.7339C45.2686 52.4055 45.2071 52.0669 45.166 51.7179C45.1455 51.3485 45.1352 50.9174 45.1352 50.4248V42.2967C45.1352 42.0298 45.166 41.8041 45.2276 41.6193C45.3097 41.4346 45.4226 41.2807 45.5663 41.1575L49.538 37.8016C49.6406 37.7195 49.774 37.6579 49.9382 37.6168C50.1229 37.5553 50.3179 37.5245 50.5232 37.5245H55.4185C55.9112 37.5245 56.2806 37.6476 56.5269 37.8939C56.7938 38.1197 56.9272 38.4686 56.9272 38.9407V47.4383C56.9272 47.6436 56.9477 47.8386 56.9888 48.0233C57.0298 48.208 57.0811 48.403 57.1427 48.6083L57.2351 48.8238V42.2967C57.2351 42.0298 57.2658 41.8041 57.3274 41.6193C57.4095 41.4346 57.5224 41.2807 57.6661 41.1575L61.6378 37.8016C61.7404 37.7195 61.8738 37.6579 62.0381 37.6168C62.2228 37.5553 62.4178 37.5245 62.623 37.5245H67.4568C67.97 37.5245 68.3291 37.6374 68.5344 37.8631C68.7602 38.0889 68.8731 38.4481 68.8731 38.9407V47.0689C68.8731 47.5615 68.8526 47.9925 68.8115 48.362C68.791 48.7109 68.7397 49.0496 68.6576 49.378C68.5755 49.6859 68.4626 50.0143 68.3189 50.3632C68.1957 50.6916 68.0418 51.0919 67.8571 51.564L64.8398 59.1071C64.7782 59.2919 64.6961 59.4561 64.5935 59.5998C64.4909 59.7434 64.3882 59.8563 64.2856 59.9384L60.3139 63.2328C60.1497 63.3765 59.9547 63.4791 59.7289 63.5407C59.5237 63.6228 59.2876 63.6638 59.0208 63.6638H51.0158ZM62.9925 60C63.3825 60 63.7006 59.9282 63.9469 59.7845C64.2138 59.6408 64.419 59.374 64.5627 58.984L67.58 51.4408C67.7647 50.9893 67.9186 50.5993 68.0418 50.2709C68.1649 49.9219 68.2676 49.5935 68.3497 49.2856C68.4318 48.9778 68.4831 48.6596 68.5036 48.3312C68.5447 47.9823 68.5652 47.5615 68.5652 47.0689V38.9407C68.5652 38.5507 68.4728 38.2737 68.2881 38.1094C68.1239 37.9247 67.8468 37.8324 67.4568 37.8324H62.623C62.233 37.8324 61.9457 37.9247 61.761 38.1094C61.5968 38.2737 61.5146 38.5507 61.5146 38.9407V47.4075C61.5146 47.6128 61.4941 47.8181 61.4531 48.0233C61.412 48.2286 61.3504 48.4441 61.2683 48.6699L59.8213 53.011C59.7597 53.2163 59.6879 53.36 59.6058 53.4421C59.5237 53.5036 59.4005 53.5344 59.2363 53.5344H58.8976C58.7334 53.5344 58.6103 53.5036 58.5282 53.4421C58.4461 53.36 58.3742 53.2163 58.3127 53.011L56.8656 48.7007C56.7835 48.4749 56.7219 48.2594 56.6809 48.0541C56.6398 47.8488 56.6193 47.6436 56.6193 47.4383V38.9407C56.6193 38.5507 56.5167 38.2737 56.3114 38.1094C56.1062 37.9247 55.8085 37.8324 55.4185 37.8324H50.5232C50.1332 37.8324 49.8458 37.9247 49.6611 38.1094C49.4969 38.2737 49.4148 38.5507 49.4148 38.9407V47.0689C49.4148 47.5615 49.4251 47.9823 49.4456 48.3312C49.4866 48.6596 49.5482 48.9778 49.6303 49.2856C49.7124 49.5935 49.8151 49.9219 49.9382 50.2709C50.0614 50.5993 50.2153 50.9893 50.4 51.4408L53.4173 58.984C53.561 59.374 53.756 59.6408 54.0023 59.7845C54.2691 59.9282 54.5975 60 54.9875 60H62.9925ZM52.8939 40.6033H53.2018V47.2536C53.2018 47.7873 53.2428 48.3004 53.3249 48.793C53.407 49.2651 53.5302 49.7064 53.6944 50.1169L55.7264 55.0431C55.9317 55.5767 56.1575 56.0283 56.4038 56.3978C56.6706 56.7467 57.0914 56.9212 57.6661 56.9212H60.3755C60.9502 56.9212 61.3607 56.7467 61.607 56.3978C61.8738 56.0283 62.1099 55.5767 62.3151 55.0431L64.3472 50.1169C64.5114 49.7064 64.6345 49.2651 64.7166 48.793C64.7987 48.3004 64.8398 47.7873 64.8398 47.2536V40.6033H65.1477V47.2536C65.1477 47.8283 65.1066 48.362 65.0245 48.8546C64.963 49.3267 64.8398 49.7885 64.6551 50.2401L62.623 55.1662C62.3767 55.7615 62.0996 56.2541 61.7917 56.6441C61.4839 57.0341 61.0118 57.229 60.3755 57.229H57.6661C57.0298 57.229 56.5577 57.0341 56.2498 56.6441C55.9419 56.2541 55.6649 55.7615 55.4185 55.1662L53.3865 50.2401C53.2018 49.7885 53.0684 49.3267 52.9863 48.8546C52.9247 48.362 52.8939 47.8283 52.8939 47.2536V40.6033ZM86.8559 63.6638H72.5701C72.0775 63.6638 71.7183 63.5509 71.4925 63.3251C71.2667 63.0994 71.1538 62.7402 71.1538 62.2476V42.2967C71.1538 42.0298 71.1846 41.8041 71.2462 41.6193C71.3283 41.4346 71.4412 41.2807 71.5849 41.1575L75.5566 37.8016C75.6592 37.7195 75.7926 37.6579 75.9568 37.6168C76.1415 37.5553 76.3365 37.5245 76.5418 37.5245H90.8276C91.3202 37.5245 91.6794 37.6374 91.9052 37.8631C92.131 38.0889 92.2439 38.4481 92.2439 38.9407V42.543C92.2439 42.8098 92.2028 43.0356 92.1207 43.2203C92.0591 43.4051 91.9565 43.559 91.8128 43.6821L89.165 45.8681C89.3703 45.9708 89.514 46.1247 89.5961 46.3299C89.6987 46.5352 89.75 46.802 89.75 47.1304V50.4248C89.75 50.6916 89.709 50.9174 89.6269 51.1022C89.5653 51.2869 89.4627 51.4408 89.319 51.564L86.5788 53.8731H90.8276C91.3202 53.8731 91.6794 53.986 91.9052 54.2118C92.131 54.4376 92.2439 54.7968 92.2439 55.2894V58.8916C92.2439 59.1585 92.2028 59.3842 92.1207 59.569C92.0591 59.7537 91.9565 59.9076 91.8128 60.0308L87.8103 63.3559C87.7282 63.438 87.5948 63.5099 87.4101 63.5715C87.2459 63.633 87.0612 63.6638 86.8559 63.6638ZM90.8276 60C91.2176 60 91.4947 59.9179 91.6589 59.7537C91.8436 59.569 91.936 59.2816 91.936 58.8916V55.2894C91.936 54.8994 91.8436 54.6223 91.6589 54.4581C91.4947 54.2734 91.2176 54.181 90.8276 54.181H82.33V51.5332H88.3338C88.7237 51.5332 89.0008 51.4511 89.165 51.2869C89.3498 51.1022 89.4421 50.8148 89.4421 50.4248V47.1304C89.4421 46.7405 89.3498 46.4634 89.165 46.2992C89.0008 46.1144 88.7237 46.0221 88.3338 46.0221H82.33V43.6514H90.8276C91.2176 43.6514 91.4947 43.5693 91.6589 43.4051C91.8436 43.2203 91.936 42.933 91.936 42.543V38.9407C91.936 38.5507 91.8436 38.2737 91.6589 38.1094C91.4947 37.9247 91.2176 37.8324 90.8276 37.8324H76.5418C76.1518 37.8324 75.8644 37.9247 75.6797 38.1094C75.5155 38.2737 75.4334 38.5507 75.4334 38.9407V58.8916C75.4334 59.2816 75.5155 59.569 75.6797 59.7537C75.8644 59.9179 76.1518 60 76.5418 60H90.8276ZM89.165 56.9212V57.229H78.7893V40.6033H89.165V40.9112H79.0972V48.6391H86.6712V48.947H79.0972V56.9212H89.165ZM102.709 40.8496L114.039 53.596V40.6033H114.347V57.229H114.039V54.0578L102.401 41.0036C102.381 40.983 102.35 40.9625 102.309 40.942C102.288 40.9215 102.268 40.9112 102.247 40.9112C102.227 40.9112 102.206 40.9215 102.186 40.942C102.186 40.9625 102.186 40.983 102.186 41.0036V57.229H101.878V40.942C101.878 40.8188 101.919 40.7265 102.001 40.6649C102.083 40.6033 102.165 40.5725 102.247 40.5725C102.329 40.5725 102.401 40.593 102.463 40.6341C102.524 40.6751 102.606 40.747 102.709 40.8496ZM104.372 60C104.762 60 105.039 59.9179 105.203 59.7537C105.388 59.569 105.48 59.2816 105.48 58.8916V48.7314L110.745 55.1046V58.8916C110.745 59.2816 110.827 59.569 110.991 59.7537C111.176 59.9179 111.463 60 111.853 60H116.471C116.861 60 117.139 59.9179 117.303 59.7537C117.487 59.569 117.58 59.2816 117.58 58.8916V38.9407C117.58 38.5507 117.487 38.2737 117.303 38.1094C117.139 37.9247 116.861 37.8324 116.471 37.8324H111.853C111.463 37.8324 111.176 37.9247 110.991 38.1094C110.827 38.2737 110.745 38.5507 110.745 38.9407V45.4987L104.772 38.6636C104.505 38.3558 104.228 38.1402 103.941 38.0171C103.674 37.8939 103.345 37.8324 102.955 37.8324H99.7534C99.3634 37.8324 99.076 37.9247 98.8913 38.1094C98.7271 38.2737 98.645 38.5507 98.645 38.9407V58.8916C98.645 59.2816 98.7271 59.569 98.8913 59.7537C99.076 59.9179 99.3634 60 99.7534 60H104.372ZM105.357 60.0308L101.354 63.3559C101.272 63.438 101.139 63.5099 100.954 63.5715C100.79 63.633 100.605 63.6638 100.4 63.6638H95.7817C95.289 63.6638 94.9298 63.5509 94.7041 63.3251C94.4783 63.0994 94.3654 62.7402 94.3654 62.2476V42.2967C94.3654 42.0298 94.3962 41.8041 94.4578 41.6193C94.5399 41.4346 94.6527 41.2807 94.7964 41.1575L98.7681 37.8016C98.8708 37.7195 99.0042 37.6579 99.1684 37.6168C99.3531 37.5553 99.5481 37.5245 99.7534 37.5245H102.955C103.407 37.5245 103.787 37.5963 104.095 37.74C104.402 37.8837 104.71 38.1197 105.018 38.4481L107.143 40.9112L110.868 37.8016C110.971 37.7195 111.104 37.6579 111.268 37.6168C111.453 37.5553 111.648 37.5245 111.853 37.5245H116.471C116.964 37.5245 117.323 37.6374 117.549 37.8631C117.775 38.0889 117.888 38.4481 117.888 38.9407V58.8916C117.888 59.1585 117.847 59.3842 117.765 59.569C117.703 59.7537 117.6 59.9076 117.457 60.0308L113.454 63.3559C113.372 63.438 113.239 63.5099 113.054 63.5715C112.89 63.633 112.705 63.6638 112.5 63.6638H107.881C107.389 63.6638 107.03 63.5509 106.804 63.3251C106.578 63.0994 106.465 62.7402 106.465 62.2476V58.5837L105.788 57.7524V58.8916C105.788 59.1585 105.747 59.3842 105.665 59.569C105.603 59.7537 105.501 59.9076 105.357 60.0308ZM131.39 63.6638H126.402C125.909 63.6638 125.55 63.5509 125.324 63.3251C125.099 63.0994 124.986 62.7402 124.986 62.2476V47.4383H120.768C120.275 47.4383 119.916 47.3254 119.69 47.0997C119.464 46.8739 119.351 46.5147 119.351 46.0221V42.2967C119.351 42.0298 119.382 41.8041 119.444 41.6193C119.526 41.4346 119.639 41.2807 119.782 41.1575L123.754 37.8016C123.857 37.7195 123.99 37.6579 124.154 37.6168C124.339 37.5553 124.534 37.5245 124.739 37.5245H140.996C141.488 37.5245 141.847 37.6374 142.073 37.8631C142.299 38.0889 142.412 38.4481 142.412 38.9407V42.6661C142.412 42.933 142.371 43.1587 142.289 43.3435C142.227 43.5282 142.125 43.6821 141.981 43.8053L137.978 47.1304C137.896 47.2126 137.763 47.2844 137.578 47.346C137.414 47.4075 137.229 47.4383 137.024 47.4383H136.778V58.8916C136.778 59.1585 136.737 59.3842 136.654 59.569C136.593 59.7537 136.49 59.9076 136.347 60.0308L132.344 63.3559C132.262 63.438 132.129 63.5099 131.944 63.5715C131.78 63.633 131.595 63.6638 131.39 63.6638ZM135.361 60C135.751 60 136.028 59.9179 136.193 59.7537C136.377 59.569 136.47 59.2816 136.47 58.8916V43.7745H140.996C141.386 43.7745 141.663 43.6924 141.827 43.5282C142.012 43.3435 142.104 43.0561 142.104 42.6661V38.9407C142.104 38.5507 142.012 38.2737 141.827 38.1094C141.663 37.9247 141.386 37.8324 140.996 37.8324H124.739C124.349 37.8324 124.062 37.9247 123.877 38.1094C123.713 38.2737 123.631 38.5507 123.631 38.9407V42.6661C123.631 43.0561 123.713 43.3435 123.877 43.5282C124.062 43.6924 124.349 43.7745 124.739 43.7745H129.265V58.8916C129.265 59.2816 129.347 59.569 129.512 59.7537C129.696 59.9179 129.984 60 130.374 60H135.361ZM132.714 57.229V40.9112H126.402V40.6033H139.333V40.9112H133.021V57.229H132.714ZM144.747 63.6638C144.255 63.6638 143.896 63.5509 143.67 63.3251C143.444 63.0994 143.331 62.7402 143.331 62.2476V58.6453C143.331 58.3785 143.362 58.1527 143.424 57.968C143.506 57.7832 143.619 57.6293 143.762 57.5061L146.841 54.9199C145.753 54.5915 144.891 54.0373 144.255 53.2573C143.639 52.4568 143.331 51.3177 143.331 49.8398V46.607C143.331 45.6834 143.485 44.8624 143.793 44.144C144.101 43.4256 144.542 42.8201 145.117 42.3275L149.119 38.9715C149.674 38.52 150.361 38.171 151.182 37.9247C152.003 37.6579 152.937 37.5245 153.984 37.5245H162.605C163.097 37.5245 163.457 37.6374 163.682 37.8631C163.908 38.0889 164.021 38.4481 164.021 38.9407V42.6046C164.021 42.8714 163.98 43.0972 163.898 43.2819C163.836 43.4666 163.734 43.6206 163.59 43.7437L160.819 46.0529C162.112 46.3402 163.149 46.8841 163.929 47.6846C164.729 48.4646 165.129 49.6859 165.129 51.3485V54.5812C165.129 55.5049 164.975 56.3259 164.668 57.0443C164.36 57.7627 163.908 58.3682 163.313 58.8608L159.341 62.186C158.766 62.6581 158.069 63.0173 157.248 63.2636C156.427 63.5304 155.503 63.6638 154.477 63.6638H144.747ZM158.448 60C160.419 60 161.968 59.5382 163.097 58.6145C164.247 57.6703 164.822 56.3259 164.822 54.5812V51.3485C164.822 49.6243 164.38 48.3928 163.498 47.6539C162.615 46.9149 161.455 46.4428 160.019 46.2376L155.431 45.6218C155.164 45.6013 154.959 45.4987 154.815 45.3139C154.672 45.1292 154.6 44.9034 154.6 44.6366C154.6 44.3698 154.672 44.1542 154.815 43.99C154.959 43.8053 155.164 43.7129 155.431 43.7129H162.605C162.995 43.7129 163.272 43.6308 163.436 43.4666C163.621 43.2819 163.713 42.9945 163.713 42.6046V38.9407C163.713 38.5507 163.621 38.2737 163.436 38.1094C163.272 37.9247 162.995 37.8324 162.605 37.8324H153.984C151.993 37.8324 150.433 38.3044 149.304 39.2486C148.175 40.1723 147.611 41.5064 147.611 43.2511V46.4839C147.611 48.208 148.042 49.4396 148.904 50.1785C149.787 50.9174 150.946 51.3895 152.383 51.5948L157.001 52.2413C157.268 52.2618 157.463 52.3542 157.586 52.5184C157.73 52.6826 157.802 52.9392 157.802 53.2881C157.802 53.5344 157.73 53.75 157.586 53.9347C157.463 54.0989 157.268 54.181 157.001 54.181H148.719C148.329 54.181 148.042 54.2734 147.857 54.4581C147.693 54.6223 147.611 54.8994 147.611 55.2894V58.8916C147.611 59.2816 147.693 59.569 147.857 59.7537C148.042 59.9179 148.329 60 148.719 60H158.448ZM160.942 40.6033V40.9112H154.107C153.245 40.9112 152.557 41.1472 152.044 41.6193C151.531 42.0914 151.275 42.6867 151.275 43.4051V45.9297C151.275 46.6481 151.418 47.151 151.706 47.4383C151.993 47.7257 152.373 47.9104 152.845 47.9925L159.341 49.3164C159.957 49.4396 160.46 49.7064 160.85 50.1169C161.26 50.5274 161.466 51.2664 161.466 52.3337V54.1194C161.466 55.0225 161.158 55.7717 160.542 56.367C159.926 56.9417 159.095 57.229 158.048 57.229H150.382V56.9212H158.048C158.992 56.9212 159.741 56.6646 160.296 56.1514C160.87 55.6178 161.158 54.9404 161.158 54.1194V52.3337C161.158 51.369 160.983 50.7122 160.634 50.3632C160.306 49.9938 159.854 49.7475 159.28 49.6243L152.783 48.3004C152.25 48.1978 151.808 47.9925 151.459 47.6846C151.131 47.3562 150.967 46.7713 150.967 45.9297V43.4051C150.967 42.584 151.254 41.9169 151.829 41.4038C152.404 40.8701 153.163 40.6033 154.107 40.6033H160.942Z" fill="#575450"/>
<path d="M184.357 50.6163C188.46 55.2209 188.87 58.9884 189.178 66C194.614 56.5814 191.23 47.7907 187.127 44.5465C183.024 41.3023 182.614 35.9651 181.485 30C177.178 38.8953 179.126 44.6512 184.357 50.6163Z" fill="#C12D2D"/>
<path d="M178.819 57.7326C181.075 60.3488 181.28 62.2326 181.485 66C184.46 60.9767 182.511 56.1628 180.255 54.4884C177.998 52.814 177.896 49.9884 177.28 46.7442C174.921 51.5581 176.049 54.593 178.819 57.7326Z" fill="#C12D2D"/>
</svg>
