<svg width="477" height="174" viewBox="0 0 477 174" fill="none" xmlns="http://www.w3.org/2000/svg">
<rect width="477" height="174" fill="#F6F3E8"/>
<path fill-rule="evenodd" clip-rule="evenodd" d="M41.7902 71.8828V110.124C40.1857 110.544 38.5015 110.768 36.765 110.768C25.8491 110.768 17 101.919 17 91.0033C17 80.0874 25.8491 71.2383 36.765 71.2383C38.5015 71.2383 40.1857 71.4622 41.7902 71.8828Z" fill="#7C020B" fill-opacity="0.4"/>
<path fill-rule="evenodd" clip-rule="evenodd" d="M41.7902 125.483C40.1857 125.062 38.5015 124.838 36.765 124.838C25.8491 124.838 17 133.687 17 144.603C17 155.519 25.8491 164.368 36.765 164.368C47.6809 164.368 56.53 155.519 56.53 144.603C56.53 144.491 56.5291 144.38 56.5272 144.268H41.7902V125.483Z" fill="#FB7B69" fill-opacity="0.4"/>
<path fill-rule="evenodd" clip-rule="evenodd" d="M131.235 110.768C142.151 110.768 151 101.919 151 91.0033C151 90.8914 150.999 90.7798 150.997 90.6684H136.26V71.8827C134.655 71.4622 132.971 71.2383 131.235 71.2383C120.319 71.2383 111.47 80.0874 111.47 91.0033C111.47 101.919 120.319 110.768 131.235 110.768Z" fill="#56B2A4" fill-opacity="0.4"/>
<path d="M87.015 164.368C97.9309 164.368 106.78 155.519 106.78 144.603C106.78 133.687 97.9309 124.838 87.015 124.838C76.0991 124.838 67.25 133.687 67.25 144.603C67.25 155.519 76.0991 164.368 87.015 164.368Z" fill="#2A3347" fill-opacity="0.4"/>
<path d="M87.015 59.8484C97.9309 59.8484 106.78 50.9993 106.78 40.0834C106.78 29.1675 97.9309 20.3184 87.015 20.3184C76.0991 20.3184 67.25 29.1675 67.25 40.0834C67.25 50.9993 76.0991 59.8484 87.015 59.8484Z" fill="#FB7B69" fill-opacity="0.4"/>
<path d="M138.27 20.3184H124.2V59.8484H138.27V20.3184Z" fill="#7C020B" fill-opacity="0.4"/>
<path d="M50.3608 24.4436L50.8116 35.7588H49.9551C48.6327 31.7617 47.4606 29.0418 46.4388 27.5992C45.417 26.1266 43.9443 25.3903 42.0209 25.3903H41.4799V55.0533H45.3118V56H28.8574V55.0533H32.6892V25.3903H32.1032C30.1797 25.3903 28.6921 26.1567 27.6402 27.6894C26.5884 29.1921 25.4313 31.8819 24.169 35.7588H23.3125L23.7633 24.4436H50.3608Z" fill="black" fill-opacity="0.4"/>
<path d="M79.8744 78.9719H94.5256V79.8284H92.0462V99.3033C92.0462 103.361 91.1295 106.321 89.2962 108.184C87.463 110.017 84.713 110.934 81.0465 110.934C78.6121 110.934 76.6737 110.468 75.2311 109.537C73.8186 108.605 73.1123 107.298 73.1123 105.615C73.1123 104.322 73.473 103.315 74.1942 102.594C74.9155 101.843 75.8923 101.467 77.1245 101.467C78.3867 101.467 79.3184 101.783 79.9195 102.414C80.5506 103.045 80.8662 103.811 80.8662 104.713C80.8662 105.585 80.7009 106.471 80.3703 107.373H78.6121C78.3417 107.824 78.2064 108.259 78.2064 108.68C78.2064 109.071 78.4018 109.416 78.7925 109.717C79.2132 109.987 79.7542 110.123 80.4154 110.123C81.6175 110.123 82.3839 109.657 82.7145 108.725C83.0751 107.763 83.2554 105.705 83.2554 102.549V79.8284H79.8744V78.9719Z" fill="black" fill-opacity="0.4"/>
<path d="M131.839 146.6C134.932 150.114 135.241 152.988 135.473 158.339C139.57 151.152 137.019 144.444 133.927 141.968C130.834 139.493 130.525 135.42 129.675 130.869C126.427 137.656 127.896 142.048 131.839 146.6Z" fill="#C12D2D" fill-opacity="0.4"/>
<path d="M127.664 152.03C129.365 154.027 129.52 155.464 129.675 158.339C131.917 154.506 130.448 150.832 128.747 149.555C127.046 148.277 126.969 146.121 126.505 143.645C124.727 147.319 125.577 149.634 127.664 152.03Z" fill="#C12D2D" fill-opacity="0.4"/>
<path d="M282.574 82.6637H277.802C277.309 82.6637 276.95 82.5508 276.724 82.325C276.499 82.0993 276.386 81.7401 276.386 81.2475V61.2966C276.386 61.0297 276.417 60.804 276.478 60.6192C276.56 60.4345 276.673 60.2806 276.817 60.1574L280.788 56.8015C280.891 56.7194 281.025 56.6578 281.189 56.6168C281.373 56.5552 281.568 56.5244 281.774 56.5244H295.505C295.998 56.5244 296.357 56.6373 296.583 56.8631C296.809 57.0889 296.922 57.4481 296.922 57.9407V61.6045C296.922 61.8713 296.881 62.0971 296.798 62.2818C296.737 62.4665 296.634 62.6205 296.491 62.7436L293.042 65.6069C293.514 65.6069 293.863 65.7198 294.089 65.9456C294.315 66.1714 294.428 66.5306 294.428 67.0232V70.7178C294.428 70.9847 294.387 71.2104 294.305 71.3952C294.243 71.5799 294.14 71.7338 293.997 71.857L289.994 75.1821C289.912 75.2642 289.779 75.3361 289.594 75.3977C289.43 75.4592 289.245 75.49 289.04 75.49H287.962V77.8915C287.962 78.1584 287.921 78.3841 287.839 78.5689C287.777 78.7536 287.675 78.9075 287.531 79.0307L283.529 82.3558C283.447 82.4379 283.313 82.5098 283.128 82.5714C282.964 82.6329 282.779 82.6637 282.574 82.6637ZM286.546 78.9999C286.936 78.9999 287.213 78.9178 287.377 78.7536C287.562 78.5689 287.654 78.2815 287.654 77.8915V71.8262H293.011C293.401 71.8262 293.679 71.7441 293.843 71.5799C294.027 71.3952 294.12 71.1078 294.12 70.7178V67.0232C294.12 66.6332 294.027 66.3561 293.843 66.1919C293.679 66.0072 293.401 65.9148 293.011 65.9148H287.654V62.7128H295.505C295.895 62.7128 296.172 62.6307 296.337 62.4665C296.521 62.2818 296.614 61.9944 296.614 61.6045V57.9407C296.614 57.5507 296.521 57.2736 296.337 57.1094C296.172 56.9247 295.895 56.8323 295.505 56.8323H281.774C281.384 56.8323 281.096 56.9247 280.912 57.1094C280.747 57.2736 280.665 57.5507 280.665 57.9407V77.8915C280.665 78.2815 280.747 78.5689 280.912 78.7536C281.096 78.9178 281.384 78.9999 281.774 78.9999H286.546ZM284.021 76.2289V59.6032H293.843V59.9111H284.329V68.7166H291.349V69.0245H284.329V76.2289H284.021ZM304.792 69.671V70.6255H316.799V69.671C316.799 69.1168 316.748 68.6037 316.645 68.1316C316.563 67.6595 316.45 67.2182 316.306 66.8077L314.182 61.7892C313.956 61.2555 313.72 60.8142 313.474 60.4653C313.228 60.0958 312.817 59.9111 312.242 59.9111H309.225C308.609 59.9111 308.178 60.0958 307.932 60.4653C307.686 60.8142 307.46 61.2453 307.255 61.7584L305.284 66.8077C305.141 67.2182 305.017 67.6595 304.915 68.1316C304.833 68.6037 304.792 69.1168 304.792 69.671ZM309.718 63.2978C309.8 63.1131 309.882 62.9797 309.964 62.8976C310.067 62.8155 310.18 62.7744 310.303 62.7744H311.072C311.196 62.7744 311.298 62.8155 311.38 62.8976C311.483 62.9797 311.575 63.1131 311.657 63.2978L313.105 67.9777H308.271L309.718 63.2978ZM316.799 76.2289V70.9333H304.792V76.2289H304.484V69.671C304.484 69.0963 304.525 68.5729 304.607 68.1008C304.71 67.6082 304.843 67.1361 305.007 66.6845L306.978 61.6352C307.203 61.0605 307.46 60.5782 307.747 60.1882C308.035 59.7982 308.527 59.6032 309.225 59.6032H312.242C312.92 59.6032 313.392 59.7982 313.659 60.1882C313.946 60.5782 314.213 61.0708 314.459 61.666L316.584 66.6845C316.748 67.1361 316.871 67.6082 316.953 68.1008C317.056 68.5729 317.107 69.0963 317.107 69.671V76.2289H316.799ZM307.963 77.8915V73.5811H313.412V77.8915C313.412 78.2815 313.505 78.5689 313.689 78.7536C313.895 78.9178 314.203 78.9999 314.613 78.9999H319.262C319.652 78.9999 319.929 78.9178 320.093 78.7536C320.278 78.5689 320.371 78.2815 320.371 77.8915V69.7634C320.371 69.1476 320.268 68.4395 320.063 67.639C319.878 66.8385 319.58 65.9046 319.17 64.8372L316.491 57.8483C316.368 57.4994 316.173 57.2428 315.906 57.0786C315.66 56.9144 315.342 56.8323 314.952 56.8323H306.67C306.259 56.8323 305.921 56.9144 305.654 57.0786C305.407 57.2428 305.223 57.4994 305.1 57.8483L302.421 64.8372C302.01 65.9046 301.703 66.8385 301.497 67.639C301.313 68.4395 301.22 69.1476 301.22 69.7634V77.8915C301.22 78.2815 301.302 78.5689 301.466 78.7536C301.651 78.9178 301.939 78.9999 302.329 78.9999H306.854C307.244 78.9999 307.522 78.9178 307.686 78.7536C307.87 78.5689 307.963 78.2815 307.963 77.8915ZM303.837 82.3558C303.755 82.4379 303.622 82.5098 303.437 82.5714C303.273 82.6329 303.088 82.6637 302.883 82.6637H298.357C297.864 82.6637 297.505 82.5508 297.279 82.325C297.053 82.0993 296.941 81.7401 296.941 81.2475V73.1193C296.941 72.483 297.033 71.7646 297.218 70.9641C297.423 70.1431 297.741 69.1784 298.172 68.07L300.82 61.1118C300.882 60.9271 300.953 60.7732 301.035 60.65C301.138 60.5063 301.241 60.3832 301.343 60.2806L301.374 60.2498L305.315 56.9554C305.479 56.8118 305.674 56.7091 305.9 56.6476C306.126 56.5655 306.382 56.5244 306.67 56.5244H314.952C315.424 56.5244 315.804 56.627 316.091 56.8323C316.399 57.017 316.625 57.3146 316.768 57.7252L319.447 64.7141C319.878 65.8225 320.186 66.7872 320.371 67.6082C320.576 68.4087 320.678 69.1271 320.678 69.7634V77.8915C320.678 78.1584 320.637 78.3841 320.555 78.5689C320.494 78.7536 320.391 78.9075 320.247 79.0307L316.245 82.3558C316.163 82.4379 316.029 82.5098 315.845 82.5714C315.68 82.6329 315.496 82.6637 315.29 82.6637H310.641C310.128 82.6637 309.749 82.5406 309.502 82.2943C309.256 82.0685 309.133 81.7195 309.133 81.2475V77.245H308.271V77.8915C308.271 78.1584 308.23 78.3841 308.148 78.5689C308.086 78.7536 307.983 78.9075 307.84 79.0307L303.837 82.3558ZM328.077 82.6637C327.605 82.6637 327.225 82.5714 326.938 82.3866C326.651 82.2224 326.415 81.9145 326.23 81.463L323.213 73.9198C323.028 73.4477 322.864 73.0475 322.72 72.7191C322.597 72.3701 322.494 72.0417 322.412 71.7338C322.33 71.4054 322.269 71.0668 322.227 70.7178C322.207 70.3484 322.197 69.9173 322.197 69.4247V61.2966C322.197 61.0297 322.227 60.804 322.289 60.6192C322.371 60.4345 322.484 60.2806 322.628 60.1574L326.599 56.8015C326.702 56.7194 326.835 56.6578 327 56.6168C327.184 56.5552 327.379 56.5244 327.585 56.5244H332.48C332.973 56.5244 333.342 56.6476 333.588 56.8939C333.855 57.1197 333.989 57.4686 333.989 57.9407V66.4382C333.989 66.6435 334.009 66.8385 334.05 67.0232C334.091 67.2079 334.143 67.4029 334.204 67.6082L334.297 67.8237V61.2966C334.297 61.0297 334.327 60.804 334.389 60.6192C334.471 60.4345 334.584 60.2806 334.728 60.1574L338.699 56.8015C338.802 56.7194 338.935 56.6578 339.1 56.6168C339.284 56.5552 339.479 56.5244 339.685 56.5244H344.518C345.031 56.5244 345.391 56.6373 345.596 56.8631C345.822 57.0889 345.935 57.4481 345.935 57.9407V66.0688C345.935 66.5614 345.914 66.9924 345.873 67.3619C345.852 67.7108 345.801 68.0495 345.719 68.3779C345.637 68.6858 345.524 69.0142 345.38 69.3631C345.257 69.6915 345.103 70.0918 344.919 70.5639L341.901 78.107C341.84 78.2918 341.758 78.456 341.655 78.5997C341.552 78.7433 341.45 78.8562 341.347 78.9383L337.375 82.2327C337.211 82.3764 337.016 82.479 336.79 82.5406C336.585 82.6227 336.349 82.6637 336.082 82.6637H328.077ZM340.054 78.9999C340.444 78.9999 340.762 78.9281 341.008 78.7844C341.275 78.6407 341.481 78.3739 341.624 77.9839L344.641 70.4407C344.826 69.9892 344.98 69.5992 345.103 69.2708C345.226 68.9218 345.329 68.5934 345.411 68.2855C345.493 67.9777 345.545 67.6595 345.565 67.3311C345.606 66.9822 345.627 66.5614 345.627 66.0688V57.9407C345.627 57.5507 345.534 57.2736 345.35 57.1094C345.185 56.9247 344.908 56.8323 344.518 56.8323H339.685C339.295 56.8323 339.007 56.9247 338.822 57.1094C338.658 57.2736 338.576 57.5507 338.576 57.9407V66.4074C338.576 66.6127 338.556 66.818 338.515 67.0232C338.474 67.2285 338.412 67.444 338.33 67.6698L336.883 72.0109C336.821 72.2162 336.749 72.3599 336.667 72.442C336.585 72.5035 336.462 72.5343 336.298 72.5343H335.959C335.795 72.5343 335.672 72.5035 335.59 72.442C335.508 72.3599 335.436 72.2162 335.374 72.0109L333.927 67.7006C333.845 67.4748 333.783 67.2593 333.742 67.054C333.701 66.8487 333.681 66.6435 333.681 66.4382V57.9407C333.681 57.5507 333.578 57.2736 333.373 57.1094C333.168 56.9247 332.87 56.8323 332.48 56.8323H327.585C327.195 56.8323 326.907 56.9247 326.723 57.1094C326.558 57.2736 326.476 57.5507 326.476 57.9407V66.0688C326.476 66.5614 326.487 66.9822 326.507 67.3311C326.548 67.6595 326.61 67.9777 326.692 68.2855C326.774 68.5934 326.877 68.9218 327 69.2708C327.123 69.5992 327.277 69.9892 327.462 70.4407L330.479 77.9839C330.622 78.3739 330.817 78.6407 331.064 78.7844C331.331 78.9281 331.659 78.9999 332.049 78.9999H340.054ZM329.955 59.6032H330.263V66.2535C330.263 66.7872 330.304 67.3003 330.386 67.7929C330.469 68.265 330.592 68.7063 330.756 69.1168L332.788 74.043C332.993 74.5766 333.219 75.0282 333.465 75.3977C333.732 75.7466 334.153 75.9211 334.728 75.9211H337.437C338.012 75.9211 338.422 75.7466 338.668 75.3977C338.935 75.0282 339.171 74.5766 339.377 74.043L341.409 69.1168C341.573 68.7063 341.696 68.265 341.778 67.7929C341.86 67.3003 341.901 66.7872 341.901 66.2535V59.6032H342.209V66.2535C342.209 66.8282 342.168 67.3619 342.086 67.8545C342.024 68.3266 341.901 68.7884 341.717 69.24L339.685 74.1661C339.438 74.7614 339.161 75.254 338.853 75.644C338.545 76.034 338.073 76.2289 337.437 76.2289H334.728C334.091 76.2289 333.619 76.034 333.311 75.644C333.003 75.254 332.726 74.7614 332.48 74.1661L330.448 69.24C330.263 68.7884 330.13 68.3266 330.048 67.8545C329.986 67.3619 329.955 66.8282 329.955 66.2535V59.6032Z" fill="#575450"/>
<path d="M313.088 112.664H298.802C298.309 112.664 297.95 112.551 297.724 112.325C297.499 112.099 297.386 111.74 297.386 111.248V91.2966C297.386 91.0297 297.417 90.804 297.478 90.6192C297.56 90.4345 297.673 90.2806 297.817 90.1574L301.788 86.8015C301.891 86.7194 302.025 86.6578 302.189 86.6167C302.373 86.5552 302.568 86.5244 302.774 86.5244H317.06C317.552 86.5244 317.911 86.6373 318.137 86.863C318.363 87.0888 318.476 87.448 318.476 87.9406V91.5429C318.476 91.8097 318.435 92.0355 318.353 92.2202C318.291 92.405 318.188 92.5589 318.045 92.682L315.397 94.868C315.602 94.9707 315.746 95.1246 315.828 95.3298C315.931 95.5351 315.982 95.8019 315.982 96.1303V99.4247C315.982 99.6915 315.941 99.9173 315.859 100.102C315.797 100.287 315.695 100.441 315.551 100.564L312.811 102.873H317.06C317.552 102.873 317.911 102.986 318.137 103.212C318.363 103.438 318.476 103.797 318.476 104.289V107.892C318.476 108.158 318.435 108.384 318.353 108.569C318.291 108.754 318.188 108.908 318.045 109.031L314.042 112.356C313.96 112.438 313.827 112.51 313.642 112.571C313.478 112.633 313.293 112.664 313.088 112.664ZM317.06 109C317.45 109 317.727 108.918 317.891 108.754C318.076 108.569 318.168 108.282 318.168 107.892V104.289C318.168 103.899 318.076 103.622 317.891 103.458C317.727 103.273 317.45 103.181 317.06 103.181H308.562V100.533H314.566C314.956 100.533 315.233 100.451 315.397 100.287C315.582 100.102 315.674 99.8147 315.674 99.4247V96.1303C315.674 95.7404 315.582 95.4633 315.397 95.2991C315.233 95.1143 314.956 95.022 314.566 95.022H308.562V92.6513H317.06C317.45 92.6513 317.727 92.5692 317.891 92.405C318.076 92.2202 318.168 91.9329 318.168 91.5429V87.9406C318.168 87.5506 318.076 87.2736 317.891 87.1093C317.727 86.9246 317.45 86.8323 317.06 86.8323H302.774C302.384 86.8323 302.096 86.9246 301.912 87.1093C301.747 87.2736 301.665 87.5506 301.665 87.9406V107.892C301.665 108.282 301.747 108.569 301.912 108.754C302.096 108.918 302.384 109 302.774 109H317.06ZM315.397 105.921V106.229H305.021V89.6032H315.397V89.9111H305.329V97.639H312.903V97.9469H305.329V105.921H315.397ZM326.016 112.664C325.544 112.664 325.164 112.571 324.877 112.387C324.59 112.222 324.353 111.915 324.169 111.463L321.151 103.92C320.967 103.448 320.803 103.048 320.659 102.719C320.536 102.37 320.433 102.042 320.351 101.734C320.269 101.405 320.207 101.067 320.166 100.718C320.146 100.348 320.135 99.9173 320.135 99.4247V91.2966C320.135 91.0297 320.166 90.804 320.228 90.6192C320.31 90.4345 320.423 90.2806 320.567 90.1574L324.538 86.8015C324.641 86.7194 324.774 86.6578 324.938 86.6167C325.123 86.5552 325.318 86.5244 325.523 86.5244H330.419C330.911 86.5244 331.281 86.6475 331.527 86.8938C331.794 87.1196 331.927 87.4685 331.927 87.9406V96.4382C331.927 96.6435 331.948 96.8385 331.989 97.0232C332.03 97.2079 332.081 97.4029 332.143 97.6082L332.235 97.8237V91.2966C332.235 91.0297 332.266 90.804 332.328 90.6192C332.41 90.4345 332.523 90.2806 332.666 90.1574L336.638 86.8015C336.741 86.7194 336.874 86.6578 337.038 86.6167C337.223 86.5552 337.418 86.5244 337.623 86.5244H342.457C342.97 86.5244 343.329 86.6373 343.535 86.863C343.76 87.0888 343.873 87.448 343.873 87.9406V96.0688C343.873 96.5614 343.853 96.9924 343.812 97.3619C343.791 97.7108 343.74 98.0495 343.658 98.3779C343.576 98.6858 343.463 99.0142 343.319 99.3631C343.196 99.6915 343.042 100.092 342.857 100.564L339.84 108.107C339.778 108.292 339.696 108.456 339.594 108.6C339.491 108.743 339.388 108.856 339.286 108.938L335.314 112.233C335.15 112.376 334.955 112.479 334.729 112.541C334.524 112.623 334.288 112.664 334.021 112.664H326.016ZM337.993 109C338.383 109 338.701 108.928 338.947 108.784C339.214 108.641 339.419 108.374 339.563 107.984L342.58 100.441C342.765 99.9892 342.919 99.5992 343.042 99.2708C343.165 98.9218 343.268 98.5934 343.35 98.2855C343.432 97.9777 343.483 97.6595 343.504 97.3311C343.545 96.9822 343.565 96.5614 343.565 96.0688V87.9406C343.565 87.5506 343.473 87.2736 343.288 87.1093C343.124 86.9246 342.847 86.8323 342.457 86.8323H337.623C337.233 86.8323 336.946 86.9246 336.761 87.1093C336.597 87.2736 336.515 87.5506 336.515 87.9406V96.4074C336.515 96.6127 336.494 96.818 336.453 97.0232C336.412 97.2285 336.351 97.444 336.269 97.6698L334.822 102.011C334.76 102.216 334.688 102.36 334.606 102.442C334.524 102.504 334.401 102.534 334.237 102.534H333.898C333.734 102.534 333.611 102.504 333.528 102.442C333.446 102.36 333.374 102.216 333.313 102.011L331.866 97.7006C331.784 97.4748 331.722 97.2593 331.681 97.054C331.64 96.8487 331.62 96.6435 331.62 96.4382V87.9406C331.62 87.5506 331.517 87.2736 331.312 87.1093C331.106 86.9246 330.809 86.8323 330.419 86.8323H325.523C325.133 86.8323 324.846 86.9246 324.661 87.1093C324.497 87.2736 324.415 87.5506 324.415 87.9406V96.0688C324.415 96.5614 324.425 96.9822 324.446 97.3311C324.487 97.6595 324.548 97.9777 324.631 98.2855C324.713 98.5934 324.815 98.9218 324.938 99.2708C325.062 99.5992 325.216 99.9892 325.4 100.441L328.418 107.984C328.561 108.374 328.756 108.641 329.003 108.784C329.269 108.928 329.598 109 329.988 109H337.993ZM327.894 89.6032H328.202V96.2535C328.202 96.7872 328.243 97.3003 328.325 97.7929C328.407 98.265 328.53 98.7063 328.695 99.1168L330.727 104.043C330.932 104.577 331.158 105.028 331.404 105.398C331.671 105.747 332.092 105.921 332.666 105.921H335.376C335.95 105.921 336.361 105.747 336.607 105.398C336.874 105.028 337.11 104.577 337.315 104.043L339.347 99.1168C339.512 98.7063 339.635 98.265 339.717 97.7929C339.799 97.3003 339.84 96.7872 339.84 96.2535V89.6032H340.148V96.2535C340.148 96.8282 340.107 97.3619 340.025 97.8545C339.963 98.3266 339.84 98.7884 339.655 99.24L337.623 104.166C337.377 104.761 337.1 105.254 336.792 105.644C336.484 106.034 336.012 106.229 335.376 106.229H332.666C332.03 106.229 331.558 106.034 331.25 105.644C330.942 105.254 330.665 104.761 330.419 104.166L328.387 99.24C328.202 98.7884 328.069 98.3266 327.987 97.8545C327.925 97.3619 327.894 96.8282 327.894 96.2535V89.6032ZM361.856 112.664H347.57C347.078 112.664 346.719 112.551 346.493 112.325C346.267 112.099 346.154 111.74 346.154 111.248V91.2966C346.154 91.0297 346.185 90.804 346.246 90.6192C346.329 90.4345 346.441 90.2806 346.585 90.1574L350.557 86.8015C350.659 86.7194 350.793 86.6578 350.957 86.6167C351.142 86.5552 351.337 86.5244 351.542 86.5244H365.828C366.32 86.5244 366.68 86.6373 366.905 86.863C367.131 87.0888 367.244 87.448 367.244 87.9406V91.5429C367.244 91.8097 367.203 92.0355 367.121 92.2202C367.059 92.405 366.957 92.5589 366.813 92.682L364.165 94.868C364.371 94.9707 364.514 95.1246 364.596 95.3298C364.699 95.5351 364.75 95.8019 364.75 96.1303V99.4247C364.75 99.6915 364.709 99.9173 364.627 100.102C364.566 100.287 364.463 100.441 364.319 100.564L361.579 102.873H365.828C366.32 102.873 366.68 102.986 366.905 103.212C367.131 103.438 367.244 103.797 367.244 104.289V107.892C367.244 108.158 367.203 108.384 367.121 108.569C367.059 108.754 366.957 108.908 366.813 109.031L362.811 112.356C362.728 112.438 362.595 112.51 362.41 112.571C362.246 112.633 362.061 112.664 361.856 112.664ZM365.828 109C366.218 109 366.495 108.918 366.659 108.754C366.844 108.569 366.936 108.282 366.936 107.892V104.289C366.936 103.899 366.844 103.622 366.659 103.458C366.495 103.273 366.218 103.181 365.828 103.181H357.33V100.533H363.334C363.724 100.533 364.001 100.451 364.165 100.287C364.35 100.102 364.442 99.8147 364.442 99.4247V96.1303C364.442 95.7404 364.35 95.4633 364.165 95.2991C364.001 95.1143 363.724 95.022 363.334 95.022H357.33V92.6513H365.828C366.218 92.6513 366.495 92.5692 366.659 92.405C366.844 92.2202 366.936 91.9329 366.936 91.5429V87.9406C366.936 87.5506 366.844 87.2736 366.659 87.1093C366.495 86.9246 366.218 86.8323 365.828 86.8323H351.542C351.152 86.8323 350.865 86.9246 350.68 87.1093C350.516 87.2736 350.434 87.5506 350.434 87.9406V107.892C350.434 108.282 350.516 108.569 350.68 108.754C350.865 108.918 351.152 109 351.542 109H365.828ZM364.165 105.921V106.229H353.79V89.6032H364.165V89.9111H354.097V97.639H361.671V97.9469H354.097V105.921H364.165ZM377.709 89.8495L389.039 102.596V89.6032H389.347V106.229H389.039V103.058L377.401 90.0035C377.381 89.9829 377.35 89.9624 377.309 89.9419C377.288 89.9214 377.268 89.9111 377.247 89.9111C377.227 89.9111 377.206 89.9214 377.186 89.9419C377.186 89.9624 377.186 89.9829 377.186 90.0035V106.229H376.878V89.9419C376.878 89.8187 376.919 89.7264 377.001 89.6648C377.083 89.6032 377.165 89.5724 377.247 89.5724C377.329 89.5724 377.401 89.5929 377.463 89.634C377.524 89.675 377.606 89.7469 377.709 89.8495ZM379.372 109C379.762 109 380.039 108.918 380.203 108.754C380.388 108.569 380.48 108.282 380.48 107.892V97.7313L385.745 104.105V107.892C385.745 108.282 385.827 108.569 385.991 108.754C386.176 108.918 386.463 109 386.853 109H391.471C391.861 109 392.139 108.918 392.303 108.754C392.487 108.569 392.58 108.282 392.58 107.892V87.9406C392.58 87.5506 392.487 87.2736 392.303 87.1093C392.139 86.9246 391.861 86.8323 391.471 86.8323H386.853C386.463 86.8323 386.176 86.9246 385.991 87.1093C385.827 87.2736 385.745 87.5506 385.745 87.9406V94.4986L379.772 87.6635C379.505 87.3557 379.228 87.1401 378.941 87.017C378.674 86.8938 378.345 86.8323 377.955 86.8323H374.754C374.364 86.8323 374.076 86.9246 373.892 87.1093C373.727 87.2736 373.645 87.5506 373.645 87.9406V107.892C373.645 108.282 373.727 108.569 373.892 108.754C374.076 108.918 374.364 109 374.754 109H379.372ZM380.357 109.031L376.354 112.356C376.272 112.438 376.139 112.51 375.954 112.571C375.79 112.633 375.605 112.664 375.4 112.664H370.782C370.289 112.664 369.93 112.551 369.704 112.325C369.479 112.099 369.366 111.74 369.366 111.248V91.2966C369.366 91.0297 369.396 90.804 369.458 90.6192C369.54 90.4345 369.653 90.2806 369.797 90.1574L373.768 86.8015C373.871 86.7194 374.004 86.6578 374.169 86.6167C374.353 86.5552 374.548 86.5244 374.754 86.5244H377.955C378.407 86.5244 378.787 86.5962 379.095 86.7399C379.402 86.8836 379.71 87.1196 380.018 87.448L382.143 89.9111L385.868 86.8015C385.971 86.7194 386.104 86.6578 386.268 86.6167C386.453 86.5552 386.648 86.5244 386.853 86.5244H391.471C391.964 86.5244 392.323 86.6373 392.549 86.863C392.775 87.0888 392.888 87.448 392.888 87.9406V107.892C392.888 108.158 392.847 108.384 392.765 108.569C392.703 108.754 392.6 108.908 392.457 109.031L388.454 112.356C388.372 112.438 388.239 112.51 388.054 112.571C387.89 112.633 387.705 112.664 387.5 112.664H382.881C382.389 112.664 382.03 112.551 381.804 112.325C381.578 112.099 381.465 111.74 381.465 111.248V107.584L380.788 106.752V107.892C380.788 108.158 380.747 108.384 380.665 108.569C380.603 108.754 380.501 108.908 380.357 109.031ZM406.39 112.664H401.402C400.909 112.664 400.55 112.551 400.324 112.325C400.099 112.099 399.986 111.74 399.986 111.248V96.4382H395.768C395.275 96.4382 394.916 96.3253 394.69 96.0996C394.464 95.8738 394.351 95.5146 394.351 95.022V91.2966C394.351 91.0297 394.382 90.804 394.444 90.6192C394.526 90.4345 394.639 90.2806 394.782 90.1574L398.754 86.8015C398.857 86.7194 398.99 86.6578 399.154 86.6167C399.339 86.5552 399.534 86.5244 399.739 86.5244H415.996C416.488 86.5244 416.847 86.6373 417.073 86.863C417.299 87.0888 417.412 87.448 417.412 87.9406V91.666C417.412 91.9329 417.371 92.1586 417.289 92.3434C417.227 92.5281 417.125 92.682 416.981 92.8052L412.978 96.1303C412.896 96.2125 412.763 96.2843 412.578 96.3459C412.414 96.4074 412.229 96.4382 412.024 96.4382H411.778V107.892C411.778 108.158 411.737 108.384 411.654 108.569C411.593 108.754 411.49 108.908 411.347 109.031L407.344 112.356C407.262 112.438 407.129 112.51 406.944 112.571C406.78 112.633 406.595 112.664 406.39 112.664ZM410.361 109C410.751 109 411.028 108.918 411.193 108.754C411.377 108.569 411.47 108.282 411.47 107.892V92.7744H415.996C416.386 92.7744 416.663 92.6923 416.827 92.5281C417.012 92.3434 417.104 92.056 417.104 91.666V87.9406C417.104 87.5506 417.012 87.2736 416.827 87.1093C416.663 86.9246 416.386 86.8323 415.996 86.8323H399.739C399.349 86.8323 399.062 86.9246 398.877 87.1093C398.713 87.2736 398.631 87.5506 398.631 87.9406V91.666C398.631 92.056 398.713 92.3434 398.877 92.5281C399.062 92.6923 399.349 92.7744 399.739 92.7744H404.265V107.892C404.265 108.282 404.347 108.569 404.512 108.754C404.696 108.918 404.984 109 405.374 109H410.361ZM407.714 106.229V89.9111H401.402V89.6032H414.333V89.9111H408.021V106.229H407.714ZM419.747 112.664C419.255 112.664 418.896 112.551 418.67 112.325C418.444 112.099 418.331 111.74 418.331 111.248V107.645C418.331 107.378 418.362 107.153 418.424 106.968C418.506 106.783 418.619 106.629 418.762 106.506L421.841 103.92C420.753 103.591 419.891 103.037 419.255 102.257C418.639 101.457 418.331 100.318 418.331 98.8397V95.6069C418.331 94.6833 418.485 93.8623 418.793 93.1439C419.101 92.4255 419.542 91.82 420.117 91.3274L424.119 87.9714C424.674 87.5199 425.361 87.1709 426.182 86.9246C427.003 86.6578 427.937 86.5244 428.984 86.5244H437.605C438.097 86.5244 438.457 86.6373 438.682 86.863C438.908 87.0888 439.021 87.448 439.021 87.9406V91.6045C439.021 91.8713 438.98 92.0971 438.898 92.2818C438.836 92.4665 438.734 92.6205 438.59 92.7436L435.819 95.0528C437.112 95.3401 438.149 95.884 438.929 96.6845C439.729 97.4645 440.129 98.6858 440.129 100.348V103.581C440.129 104.505 439.975 105.326 439.668 106.044C439.36 106.763 438.908 107.368 438.313 107.861L434.341 111.186C433.766 111.658 433.069 112.017 432.248 112.264C431.427 112.53 430.503 112.664 429.477 112.664H419.747ZM433.448 109C435.419 109 436.968 108.538 438.097 107.614C439.247 106.67 439.822 105.326 439.822 103.581V100.348C439.822 98.6242 439.38 97.3927 438.498 96.6538C437.615 95.9148 436.455 95.4427 435.019 95.2375L430.431 94.6217C430.164 94.6012 429.959 94.4986 429.815 94.3138C429.672 94.1291 429.6 93.9033 429.6 93.6365C429.6 93.3697 429.672 93.1541 429.815 92.9899C429.959 92.8052 430.164 92.7128 430.431 92.7128H437.605C437.995 92.7128 438.272 92.6307 438.436 92.4665C438.621 92.2818 438.713 91.9944 438.713 91.6045V87.9406C438.713 87.5506 438.621 87.2736 438.436 87.1093C438.272 86.9246 437.995 86.8323 437.605 86.8323H428.984C426.993 86.8323 425.433 87.3043 424.304 88.2485C423.175 89.1722 422.611 90.5063 422.611 92.251V95.4838C422.611 97.2079 423.042 98.4395 423.904 99.1784C424.787 99.9173 425.946 100.389 427.383 100.595L432.001 101.241C432.268 101.262 432.463 101.354 432.586 101.518C432.73 101.683 432.802 101.939 432.802 102.288C432.802 102.534 432.73 102.75 432.586 102.935C432.463 103.099 432.268 103.181 432.001 103.181H423.719C423.329 103.181 423.042 103.273 422.857 103.458C422.693 103.622 422.611 103.899 422.611 104.289V107.892C422.611 108.282 422.693 108.569 422.857 108.754C423.042 108.918 423.329 109 423.719 109H433.448ZM435.942 89.6032V89.9111H429.107C428.245 89.9111 427.557 90.1471 427.044 90.6192C426.531 91.0913 426.275 91.6866 426.275 92.405V94.9296C426.275 95.648 426.418 96.1509 426.706 96.4382C426.993 96.7256 427.373 96.9103 427.845 96.9924L434.341 98.3163C434.957 98.4395 435.46 98.7063 435.85 99.1168C436.26 99.5273 436.466 100.266 436.466 101.334V103.119C436.466 104.022 436.158 104.772 435.542 105.367C434.926 105.942 434.095 106.229 433.048 106.229H425.382V105.921H433.048C433.992 105.921 434.741 105.665 435.296 105.151C435.87 104.618 436.158 103.94 436.158 103.119V101.334C436.158 100.369 435.983 99.7121 435.634 99.3631C435.306 98.9937 434.854 98.7474 434.28 98.6242L427.783 97.3003C427.25 97.1977 426.808 96.9924 426.459 96.6845C426.131 96.3561 425.967 95.7712 425.967 94.9296V92.405C425.967 91.5839 426.254 90.9168 426.829 90.4037C427.404 89.87 428.163 89.6032 429.107 89.6032H435.942Z" fill="#575450"/>
<path d="M459.357 99.6163C463.46 104.221 463.87 107.988 464.178 115C469.614 105.581 466.23 96.7907 462.127 93.5465C458.024 90.3023 457.614 84.9651 456.485 79C452.178 87.8953 454.126 93.6512 459.357 99.6163Z" fill="#C12D2D"/>
<path d="M453.819 106.733C456.075 109.349 456.28 111.233 456.485 115C459.46 109.977 457.511 105.163 455.255 103.488C452.998 101.814 452.896 98.9883 452.28 95.7441C449.921 100.558 451.049 103.593 453.819 106.733Z" fill="#C12D2D"/>
<line x1="213.5" y1="8" x2="213.5" y2="165" stroke="black"/>
</svg>
